<?xml version="1.0" standalone="no"?>
<!DOCTYPE svg PUBLIC "-//W3C//DTD SVG 1.1//EN" "http://www.w3.org/Graphics/SVG/1.1/DTD/svg11.dtd" >
<svg>
<metadata>
Created by FontForge 20090914 at Thu Nov 15 01:28:04 2012
 By www-data
&#194;&#169; 1999-2000, Apostrophe. All rights reserved. Distribute freely. apostrofe@mail.com
</metadata>
<defs>
<font id="FightThis" horiz-adv-x="377" >
  <font-face 
    font-family="FightThis"
    font-weight="400"
    font-stretch="normal"
    units-per-em="1000"
    panose-1="2 0 0 6 4 0 0 2 0 4"
    ascent="800"
    descent="-200"
    x-height="714"
    cap-height="714"
    bbox="-68 -226.999 1005 1050"
    underline-thickness="50"
    underline-position="-75"
    unicode-range="U+0006-U+2122"
  />
<missing-glyph horiz-adv-x="500" 
 />
    <glyph glyph-name=".notdef" horiz-adv-x="500" 
 />
    <glyph glyph-name="dotaccent" horiz-adv-x="190" 
d="M274 969l-39 -130h-110l39 130h110z" />
    <glyph glyph-name="ring" horiz-adv-x="519" 
d="M452 811c-8.66699 -30.667 -22.8311 -53.998 -42.498 -69.998s-39.167 -24 -58.5 -24h-17l26 77c11.333 5.33301 18.666 13.666 21.999 24.999l38 128c2.66699 6.66699 2.83398 12.834 0.500977 18.501s-7.83301 8.5 -16.5 8.5c-8 0 -15.167 -2.83301 -21.5 -8.5
s-10.833 -11.834 -13.5 -18.501l-38 -128c-2 -6.66699 -1.66699 -12.834 1 -18.501s7.66699 -8.5 15 -8.5l-25 -75h-22c-19.333 0 -33.833 8 -43.5 24s-10.167 39.333 -1.5 70l44 144c9.33301 30.667 23.666 54 42.999 70s38.666 24 57.999 24h51c19.333 0 34 -8 44 -24
s10.333 -39.333 1 -70z" />
    <glyph glyph-name="caron" horiz-adv-x="510" 
d="M546 1050l-199 -337h-85l-35 327h93l15 -190l117 200h94z" />
    <glyph glyph-name="dotlessi" unicode="&#xd;" horiz-adv-x="205" 
d="M41 0l215 714h124l-215 -714h-124z" />
    <glyph glyph-name="fraction" horiz-adv-x="252" 
d="M476 728l-390 -742h-95l389 742h96z" />
    <glyph glyph-name="Zcaron" horiz-adv-x="331" 
d="M19 0l39 130l284 454h-144l40 130h285l-40 -130l-291 -454h169l-39 -130h-303zM617 1050l-199 -337h-85l-35 327h93l15 -190l117 200h94z" />
    <glyph glyph-name="zcaron" horiz-adv-x="331" 
d="M19 0l39 130l284 454h-144l40 130h285l-40 -130l-291 -454h169l-39 -130h-303zM617 1050l-199 -337h-85l-35 327h93l15 -190l117 200h94z" />
    <glyph glyph-name="space" unicode=" " horiz-adv-x="181" 
 />
    <glyph glyph-name="exclam" unicode="!" horiz-adv-x="220" 
d="M205 130l-39 -130h-111l39 130h111zM219 214h-89l133 500h125z" />
    <glyph glyph-name="quotedbl" unicode="&#x22;" horiz-adv-x="320" 
d="M383 714h95l-82 -270h-95zM235 714h95l-82 -270h-95z" />
    <glyph glyph-name="numbersign" unicode="#" horiz-adv-x="362" 
d="M320 511h-66l73 185h67zM184 0l73 186h67l-74 -186h-66zM298 288l43 106h66l-43 -106h55l-28 -90h-195l-80 -198h-66l80 198h-62l29 90h201zM279 408l-44 -108h-66l44 108h-61l29 90h201l80 198h65l-79 -198h56l-30 -90h-195z" />
    <glyph glyph-name="dollar" unicode="$" horiz-adv-x="362" 
d="M185 100c26.667 -1.33301 49.0029 4.16504 67.0029 16.498s31.667 34.5 41 66.5c6.66699 21.333 6.66699 39.5 0 54.5s-16.5 29.167 -29.5 42.5s-27.167 26.833 -42.5 40.5s-28.833 29.5 -40.5 47.5s-19.5 39.333 -23.5 64s-0.666992 54.667 10 90s22.667 65.333 36 90
s28.333 44.5 45 59.5s35.167 25.833 55.5 32.5s42.5 10 66.5 10l20 68h52l-20 -68c26.667 0 47.667 -4 63 -12s26.166 -18.667 32.499 -32s9 -29 8 -47s-4.5 -37 -10.5 -57l-21 -70h-110l14 48c7.33301 22 6.5 37.167 -2.5 45.5s-21.167 12.5 -36.5 12.5
c-35.333 0 -59.333 -20.667 -72 -62c-6.66699 -21.333 -6.83398 -40 -0.500977 -56s15.666 -31.667 27.999 -47s26 -30.833 41 -46.5s28 -33.334 39 -53.001s18.333 -42.167 22 -67.5s0.166992 -55.333 -10.5 -90c-12 -39.333 -24.833 -71.666 -38.5 -96.999
s-28.667 -45.166 -45 -59.499s-34.333 -24.166 -54 -29.499s-41.5 -8 -65.5 -8l-21 -68h-52z" />
    <glyph glyph-name="percent" unicode="%" horiz-adv-x="519" 
d="M702 706l-612 -716h-58l612 716h58zM405 92c-2 -6.66699 -1.50293 -12.835 1.49707 -18.502s8.5 -8.5 16.5 -8.5c8.66699 0 15.834 2.83301 21.501 8.5s9.5 11.834 11.5 18.501l38 129c2.66699 5.33301 2.83398 10.833 0.500977 16.5s-7.5 8.83398 -15.5 9.50098l22 75
h23c19.333 0 34 -8 44 -24s10.333 -39.333 1 -70l-42 -144c-9.33301 -30 -23.666 -53.167 -42.999 -69.5s-38.666 -24.5 -57.999 -24.5h-51c-19.333 0 -34 8.16699 -44 24.5s-10.333 39.5 -1 69.5l42 144c9.33301 30.667 23.666 54 42.999 70s38.666 24 57.999 24h16
l-24 -78c-11.333 -6 -18.666 -13.667 -21.999 -23zM363.997 467.999c-8.66699 -30.667 -22.8311 -53.998 -42.498 -69.998s-39.167 -24 -58.5 -24h-17l26 77c11.333 5.33301 18.666 13.666 21.999 24.999l38 128c2.66699 6.66699 2.83398 12.834 0.500977 18.501
s-7.83301 8.5 -16.5 8.5c-8 0 -15.167 -2.83301 -21.5 -8.5s-10.833 -11.834 -13.5 -18.501l-38 -128c-2 -6.66699 -1.66699 -12.834 1 -18.501s7.66699 -8.5 15 -8.5l-25 -75h-22c-19.333 0 -33.833 8 -43.5 24s-10.167 39.333 -1.5 70l44 144
c9.33301 30.667 23.666 54 42.999 70s38.666 24 57.999 24h51c19.333 0 34 -8 44 -24s10.333 -39.333 1 -70z" />
    <glyph glyph-name="ampersand" unicode="&#x26;" horiz-adv-x="456" 
d="M312 428c10.667 8 19.8379 15.332 27.5049 21.999s14.167 13.334 19.5 20.001s9.66602 14 12.999 22s6.66602 17 9.99902 27c5.33301 19.333 6.16602 33.333 2.49902 42s-10.834 13 -21.501 13c-10 0 -19.833 -4.83301 -29.5 -14.5s-17.834 -24.5 -24.501 -44.5
c-4.66699 -16.667 -6.66699 -32.5 -6 -47.5s3.66699 -28.167 9 -39.5zM238.004 257.999c-15.333 -10.667 -28.668 -23.168 -40.001 -37.501s-19.666 -30.5 -24.999 -48.5c-5.33301 -17.333 -5.5 -31.666 -0.5 -42.999s15.167 -17 30.5 -17c20 0 45 17.667 75 53z
M375.002 278.998l54.999 66.001h125l-137 -167c4 -6.66699 7 -13 9 -19s4 -11.333 6 -16s4.33301 -8.5 7 -11.5s6.66699 -4.83301 12 -5.5h29l-38 -126h-43c-15.333 0 -27.166 1.66699 -35.499 5s-15.166 8 -20.499 14s-9.66602 13.5 -12.999 22.5s-7.33301 19.167 -12 30.5
c-26 -29.333 -51 -51 -75 -65s-51.667 -21 -83 -21c-26.667 0 -48.334 4.5 -65.001 13.5s-28.834 21.667 -36.501 38s-11.167 36.166 -10.5 59.499s5 49 13 77c11.333 36.667 29.833 70.667 55.5 102s54.5 56.666 86.5 75.999c-9.33301 18 -13.833 41.333 -13.5 70
s4.5 56 12.5 82c19.333 64 45 110.333 77 139s70.667 43 116 43c46 0 76 -13.167 90 -39.5s12.333 -68.833 -5 -127.5c-7.33301 -25.333 -15.5 -46.666 -24.5 -63.999s-19 -32.5 -30 -45.5s-23 -24.833 -36 -35.5s-27.167 -21.667 -42.5 -33z" />
    <glyph glyph-name="quotesingle" unicode="'" horiz-adv-x="174" 
d="M238 713h95l-82 -270h-95z" />
    <glyph glyph-name="parenleft" unicode="(" horiz-adv-x="252" 
d="M219 0h-74.998c-29.333 0 -50 9.16699 -62 27.5s-12 47.5 0 87.5l146 484c11.333 40 28.666 69.167 51.999 87.5s49.666 27.5 78.999 27.5h75l-30 -100h-29c-16.667 0 -29.5 -2.5 -38.5 -7.5s-15.5 -14.833 -19.5 -29.5l-133 -440c-4.66699 -14.667 -4 -24.5 2 -29.5
s17.333 -7.5 34 -7.5h29z" />
    <glyph glyph-name="parenright" unicode=")" horiz-adv-x="252" 
d="M62 100h29.001c16.667 0 29.5 2.5 38.5 7.5s15.833 14.833 20.5 29.5l133 440c4 14.667 3 24.5 -3 29.5s-17.333 7.5 -34 7.5h-29l30 100h76c29.333 0 49.666 -9.16699 60.999 -27.5s11.333 -47.5 0 -87.5l-146 -484c-12 -40 -29.333 -69.167 -52 -87.5
s-48.667 -27.5 -78 -27.5h-76z" />
    <glyph glyph-name="asterisk" unicode="*" horiz-adv-x="346" 
d="M463 537h-107v-2l64 -69l-34 -64h-59l6 128h-1l-72 -128h-59l6 64l106 69v2h-107l4 62l54 41l67 -81l2 2l2 127l57 40l33 -40l-73 -127l1 -2l114 81l30 -41z" />
    <glyph glyph-name="plus" unicode="+" horiz-adv-x="510" 
d="M411 370h-96l48 146h96zM569 314l-35 -112h-171l-60 -202h-96l60 202h-171l35 112h438z" />
    <glyph glyph-name="comma" unicode="," horiz-adv-x="181" 
d="M185 130l-39 -130l-96 -130h-62l90 130h-42l39 130h110z" />
    <glyph glyph-name="hyphen" unicode="-" horiz-adv-x="268" 
d="M96 198l36 120h196l-36 -120h-196z" />
    <glyph glyph-name="period" unicode="." horiz-adv-x="181" 
d="M185 130l-39 -130h-110l39 130h110z" />
    <glyph glyph-name="slash" unicode="/" horiz-adv-x="252" 
d="M476 728l-390 -742h-95l389 742h96z" />
    <glyph glyph-name="zero" unicode="0" horiz-adv-x="362" 
d="M371 530c6 18.667 7.33203 32 3.99902 40s-9.66602 12 -18.999 12s-18 -4 -26 -12s-15 -21.333 -21 -40l-110 -364c-7.33301 -25.333 -6.33301 -41.333 3 -48l-36 -127c-46 2 -77.167 14.667 -93.5 38s-16.5 61 -0.5 113l124 412c16 54.667 40.333 93.667 73 117
s74 35 124 35s84.333 -11.667 103 -35s20 -62.333 4 -117l-124 -412c-16 -52 -39 -89.667 -69 -113s-68 -36 -114 -38l37 127c12.667 6 23 22 31 48z" />
    <glyph glyph-name="one" unicode="1" horiz-adv-x="362" 
d="M315 563l38 133h114l-210 -696h-121z" />
    <glyph glyph-name="two" unicode="2" horiz-adv-x="362" 
d="M27 0l34.999 116.999c5.33301 18.667 16.166 39.667 32.499 63s35 47.333 56 72l67 75l67 73.5c21 23.667 39.167 45.834 54.5 66.501s25.333 38.667 30 54c7.33301 24 9.66602 40 6.99902 48s-10 12 -22 12c-11.333 0 -20.666 -3.5 -27.999 -10.5
s-13.666 -20.167 -18.999 -39.5l-14 -44h-120l17 52c8 27.333 17.5 51.333 28.5 72s24.333 38 40 52s34.334 24.667 56.001 32s47.167 11 76.5 11s52.833 -3 70.5 -9s30.167 -16 37.5 -30s10 -32.333 8 -55s-8 -50.334 -18 -83.001c-12 -41.333 -28 -77.166 -48 -107.499
s-42.667 -59.833 -68 -88.5l-83 -90.5c-30 -31.667 -61.333 -69.5 -94 -113.5h119c6 -4 8.5 -10.167 7.5 -18.5s-3.16699 -18 -6.5 -29s-6.83301 -23.5 -10.5 -37.5s-5.5 -28.667 -5.5 -44h-273z" />
    <glyph glyph-name="three" unicode="3" horiz-adv-x="362" 
d="M212 115c12 0 22.0039 4.16992 30.0039 12.5029s16 25.166 24 50.499l18 61c7.33301 25.333 9.66602 42.333 6.99902 51s-10 13 -22 13h-56l39 128h56c11.333 0 20.666 3.16699 27.999 9.5s13.666 17.833 18.999 34.5l19 63c4.66699 16.667 5.16699 28.167 1.5 34.5
s-11.167 9.5 -22.5 9.5c-10.667 0 -19.834 -3.16699 -27.501 -9.5s-13.834 -17.833 -18.501 -34.5l-16 -51h-115l21 67c16 54.667 40.167 93.667 72.5 117s73.5 35 123.5 35s84.167 -11.667 102.5 -35s19.5 -62.333 3.5 -117l-19 -60
c-10 -34.667 -24.167 -63.334 -42.5 -86.001s-44.166 -34.667 -77.499 -36l-1 -3c16 -0.666992 28.5 -4.16699 37.5 -10.5s15 -14.833 18 -25.5s3.66699 -23.334 2 -38.001s-4.83398 -30.667 -9.50098 -48l-32 -105c-16.667 -54 -41 -92.833 -73 -116.5
s-73 -35.5 -123 -35.5c-9.33301 0 -17.666 0.333008 -24.999 1s-14.333 1.66699 -21 3l39 121h40z" />
    <glyph glyph-name="four" unicode="4" horiz-adv-x="362" 
d="M98 292l256 404h165l-122 -404h43l-39 -126h-43l-49 -166h-116l49 166l116 384h-2l-156 -262h68l-40 -122h-169z" />
    <glyph glyph-name="five" unicode="5" horiz-adv-x="362" 
d="M188 188l-11.999 -32.0039c-5.33301 -13.333 -7.33301 -23.166 -6 -29.499s4.16602 -10.5 8.49902 -12.5s9.66602 -2.83301 15.999 -2.5s12.166 0.5 17.499 0.5c11.333 0 21.166 4.5 29.499 13.5s16.5 27.167 24.5 54.5l38 125c7.33301 26.667 9.5 44.667 6.5 54
s-10.167 14 -21.5 14c-22 0 -37.333 -16.333 -46 -49l-4 -8h-102l116 380h214c7.33301 -1.33301 12.833 -3.16602 16.5 -5.49902s6.5 -5.16602 8.5 -8.49902s3.5 -6.66602 4.5 -9.99902s2.16699 -6.33301 3.5 -9v-43l-19 -54h-157l-36 -117h2
c4.66699 8 10.834 14.667 18.501 20s15.667 9.5 24 12.5s16.833 5.16699 25.5 6.5s16.334 2 23.001 2c26 0 45.5 -11.167 58.5 -33.5s13.5 -53.5 1.5 -93.5l-66 -223c-17.333 -55.333 -42.166 -94.833 -74.499 -118.5s-73.5 -35.5 -123.5 -35.5s-84.667 12 -104 36
s-19.333 63.333 0 118l17 48h98z" />
    <glyph glyph-name="six" unicode="6" horiz-adv-x="362" 
d="M295 279c4.66699 14 4.49805 23.6689 -0.501953 29.002s-12.167 8 -21.5 8c-4 0 -8.66699 -0.666992 -14 -2l32 102c11.333 7.33301 22.333 12.166 33 14.499s19.334 3.5 26.001 3.5c38 0 62.667 -12.5 74 -37.5s10.666 -57.833 -2.00098 -98.5l-48 -160
c-15.333 -51.333 -38.666 -88.833 -69.999 -112.5s-73 -35.5 -125 -35.5s-87 11.833 -105 35.5s-19.333 61.167 -4 112.5l120 398c8.66699 29.333 19 54.666 31 75.999s26 39 42 53s34.667 24.333 56 31s46 10 74 10c56.667 0 92.334 -13 107.001 -39
s14.334 -64.333 -0.999023 -115l-19 -63h-121l14 46c10 31.333 4.33301 47 -17 47c-20 0 -35 -15.667 -45 -47l-25.5 -82l-26 -84.5l-29 -97.5l-35.5 -120c-4 -13.333 -4.33301 -22.666 -1 -27.999s9.66602 -8 18.999 -8s18 2.66699 26 8s14 14.666 18 27.999z" />
    <glyph glyph-name="seven" unicode="7" horiz-adv-x="362" 
d="M358 566h-143l40 130h272l-35 -116l-308 -580h-128z" />
    <glyph glyph-name="eight" unicode="8" horiz-adv-x="362" 
d="M293 490c-6 -21.333 -7.99902 -36.501 -5.99902 -45.501s8.33301 -13.833 19 -14.5l-17 -50l-97 4c-16 10.667 -23.667 26.667 -23 48s5.33398 46.333 14.001 75l19 62c13.333 42.667 36.166 76.167 68.499 100.5s73.166 36.5 122.499 36.5s83.166 -12.167 101.499 -36.5
s20.833 -57.833 7.5 -100.5l-19 -62c-5.33301 -16 -10.833 -31.167 -16.5 -45.5s-12.5 -27.166 -20.5 -38.499s-17.333 -21 -28 -29s-23.667 -14 -39 -18l-78 3l17 52c9.33301 2 17.833 7.5 25.5 16.5s14.167 23.167 19.5 42.5l10 32c6.66699 22 8.33398 37.5 5.00098 46.5
s-10.666 13.5 -21.999 13.5s-21.333 -4.5 -30 -13.5s-16.334 -24.5 -23.001 -46.5zM97.001 239.999c12.667 42.667 28.1689 74.1689 46.502 94.502s41.166 32.166 68.499 35.499h1l72 -3l-16 -51c-19.333 -2 -32.666 -14.333 -39.999 -37l-38 -128
c-7.33301 -24 0.666992 -36 24 -36s38.666 12 45.999 36l38 128c7.33301 21.333 1.33301 33.666 -18 36.999l16 51l98 -4c15.333 -8 24.166 -22 26.499 -42s-1.83398 -47.667 -12.501 -83l-31 -100c-8 -27.333 -18 -50.5 -30 -69.5s-26.167 -34.333 -42.5 -46
s-35 -20 -56 -25s-44.5 -7.5 -70.5 -7.5s-48.167 2.5 -66.5 7.5s-32.166 13.333 -41.499 25s-14.5 27 -15.5 46s2.5 42.167 10.5 69.5z" />
    <glyph glyph-name="nine" unicode="9" horiz-adv-x="362" 
d="M276 417c-4 -13.333 -4.33301 -22.668 -1 -28.001s10.333 -8 21 -8s18.667 2.33301 24 7l-27 -97c-12.667 -12.667 -26 -20.667 -40 -24s-24.667 -5 -32 -5c-38 0 -62.667 12.5 -74 37.5s-10.666 58.167 2.00098 99.5l48 159c15.333 52 38.833 89.667 70.5 113
s73.5 35 125.5 35s86.833 -11.667 104.5 -35s18.834 -61 3.50098 -113l-120 -398c-8.66699 -29.333 -18.834 -54.666 -30.501 -75.999s-25.5 -39 -41.5 -53s-34.667 -24.333 -56 -31s-46 -10 -74 -10s-50.833 3.33301 -68.5 10s-30.5 16.5 -38.5 29.5s-11.833 29 -11.5 48
s4.16602 41.167 11.499 66.5l19 64h121l-13 -47c-10 -30.667 -4.66699 -46 16 -46s36 15.333 46 46l27 92l19 64.5l14.5 48l12 39.5l11.5 37.5l13.5 44l17.5 58.5c6.66699 24.667 0 37 -20 37c-21.333 0 -35.333 -12.333 -42 -37z" />
    <glyph glyph-name="colon" unicode=":" horiz-adv-x="181" 
d="M293 489l-40 -130h-110l40 130h110zM185 130l-39 -130h-110l39 130h110z" />
    <glyph glyph-name="semicolon" unicode=";" horiz-adv-x="181" 
d="M293 490l-38 -130h-110l38 130h110zM185 130l-39 -130l-96 -130h-62l90 130h-42l39 130h110z" />
    <glyph glyph-name="less" unicode="&#x3c;" horiz-adv-x="510" 
d="M238 258l267 -153l-32 -108l-373 216l27 90l503 216l-33 -108z" />
    <glyph glyph-name="equal" unicode="=" horiz-adv-x="510" 
d="M502 92h-438l33 112h438zM568 312h-438l34 112h438z" />
    <glyph glyph-name="greater" unicode="&#x3e;" horiz-adv-x="510" 
d="M425 258l-266 153l33 108l373 -216l-27 -90l-503 -216l32 108z" />
    <glyph glyph-name="question" unicode="?" horiz-adv-x="346" 
d="M256 130l-39 -130h-111l39 130h111zM171 216l29.001 99.999c8 25.333 19.333 46.5 34 63.5s30.667 33.5 48 49.5s33.166 32.833 47.499 50.5s25.166 39.167 32.499 64.5c8.66699 27.333 11.834 46.166 9.50098 56.499s-8.16602 15.5 -17.499 15.5
s-18.333 -5.16699 -27 -15.5s-17.334 -29.166 -26.001 -56.499l-13 -45h-111l19 60c9.33301 31.333 20.166 57.833 32.499 79.5s26.666 39.167 42.999 52.5s34.5 22.833 54.5 28.5s42 8.5 66 8.5c97.333 0 129 -58 95 -174c-7.33301 -23.333 -15 -43.666 -23 -60.999
s-16.333 -32.5 -25 -45.5s-17.5 -24.167 -26.5 -33.5s-17.833 -18 -26.5 -26l-26.5 -23c-8.33301 -7.33301 -16.166 -15.5 -23.499 -24.5s-14.166 -19 -20.499 -30s-11.833 -23.833 -16.5 -38.5l-17 -56h-111z" />
    <glyph glyph-name="at" unicode="@" horiz-adv-x="680" 
d="M385 249c16 0 31.6641 4.5 46.9971 13.5s29.333 20.833 42 35.5l-57 -116c-14 -11.333 -28.5 -20.666 -43.5 -27.999s-28.833 -11 -41.5 -11c-18 0 -34 4.66699 -48 14s-25 22 -33 38s-12.667 34.667 -14 56s1.66699 43.666 9 66.999
c8.66699 30 21.334 59.167 38.001 87.5s36 53.5 58 75.5s45.833 39.667 71.5 53s51.834 20 78.501 20c20 0 37 -4.5 51 -13.5s24 -23.167 30 -42.5l-55 -111c2.66699 19.333 0.5 34.5 -6.5 45.5s-19.167 16.5 -36.5 16.5c-13.333 0 -26.833 -3.33301 -40.5 -10
s-26.334 -15.5 -38.001 -26.5s-22.167 -23.5 -31.5 -37.5s-16 -28 -20 -42c-7.33301 -24 -7.66602 -44 -0.999023 -60s20.334 -24 41.001 -24zM476.997 139c-11.333 0 -20.498 4.00293 -27.498 12.0029s-8.83301 20 -5.5 36l174 351h72l-117 -244
c-2 -5.33301 -4.66699 -11.333 -8 -18s-5.66602 -13 -6.99902 -19c-3.33301 -8 -4.33301 -13.5 -3 -16.5s4 -4.5 8 -4.5c10 0 21 3.5 33 10.5s24.167 17.167 36.5 30.5s24.166 30.166 35.499 50.499s21 43.833 29 70.5c12 40 17 75.333 15 106s-9.83301 56.334 -23.5 77.001
s-32.667 36.334 -57 47.001s-52.5 16 -84.5 16c-35.333 0 -69.666 -7.33301 -102.999 -22s-64 -34.834 -92 -60.501s-52.833 -56 -74.5 -91s-38.834 -73.167 -51.501 -114.5c-13.333 -44 -19.166 -83.667 -17.499 -119s9.66699 -65.5 24 -90.5s34.5 -44.333 60.5 -58
s57 -20.5 93 -20.5c33.333 0 66.5 6.66699 99.5 20s63.5 30.666 91.5 51.999h78c-44.667 -50 -92.667 -88.167 -144 -114.5s-103 -39.5 -155 -39.5c-45.333 0 -85 9.16699 -119 27.5s-61 44 -81 77s-31.833 72.167 -35.5 117.5s2.5 94.666 18.5 147.999
c16 52.667 39.333 101.667 70 147s65.667 84.666 105 117.999s81.5 59.5 126.5 78.5s89.5 28.5 133.5 28.5c37.333 0 71.666 -7.16699 102.999 -21.5s56.666 -34.5 75.999 -60.5s31.833 -57.667 37.5 -95s1.5 -79 -12.5 -125c-16.667 -55.333 -39.334 -101.333 -68.001 -138
s-58 -66 -88 -88s-58.333 -37.667 -85 -47s-46.667 -14 -60 -14z" />
    <glyph glyph-name="A" unicode="A" 
d="M235 256h60l74 338h-1zM3 0l318 714h165l-112 -714h-128l23 126h-86l-50 -126h-130z" />
    <glyph glyph-name="B" unicode="B" 
d="M200 130h28.998c8.66699 0 16.167 1 22.5 3s12 6 17 12s9.83301 14.833 14.5 26.5s10.334 27.5 17.001 47.5c6 20 10 36 12 48s2.33301 21 1 27s-4.66602 9.83301 -9.99902 11.5s-12.333 2.5 -21 2.5h-29zM161.998 439l163.002 -0.998047
c6.66699 0 12.5 0.833008 17.5 2.5s9.66699 5 14 10s8.5 12.167 12.5 21.5s8.33301 21.666 13 36.999c8 9.33301 11 20 9 32c3.33301 17.333 3.16602 28.833 -0.500977 34.5s-11.167 8.5 -22.5 8.5h-3c-1.33301 0 -3.33301 0.166992 -6 0.5
s-8.83398 0.666016 -18.501 0.999023s-24.5 0.5 -44.5 0.5h-83l39 128h181c48 0 78.833 -12.333 92.5 -37s13.5 -61 -0.5 -109l-19 -62c-8 -27.333 -20.667 -53 -38 -77s-42.666 -41.667 -75.999 -53l-1 -2c49.333 -10 63.666 -50.333 42.999 -121l-33 -107
c-14.667 -48 -36.167 -84.333 -64.5 -109s-66.5 -37 -114.5 -37h-185z" />
    <glyph glyph-name="C" unicode="C" horiz-adv-x="362" 
d="M198 560c16.667 58.667 41.001 101.333 73.001 128s76.333 40 133 40s93 -13.167 109 -39.5s15.333 -69.166 -2 -128.499l-30 -101h-124l31 107c3.33301 10.667 2.5 18.667 -2.5 24s-11.833 8 -20.5 8c-11.333 0 -20.666 -3.5 -27.999 -10.5s-14 -20.167 -20 -39.5
l-115 -382c-5.33301 -19.333 -6.5 -32.5 -3.5 -39.5s10.167 -10.5 21.5 -10.5c7.33301 0 14.666 2 21.999 6l-37 -135c-4 0 -8 -0.166992 -12 -0.5s-8 -0.5 -12 -0.5c-56.667 0 -92.834 13.167 -108.501 39.5s-14.5 69.166 3.5 128.499z" />
    <glyph glyph-name="D" unicode="D" 
d="M215 585l37.002 129.003h153c27.333 0 50.333 -2.5 69 -7.5s32.667 -13.833 42 -26.5s13.833 -29.834 13.5 -51.501s-5.5 -49.167 -15.5 -82.5l-113 -378c-10 -33.333 -21.667 -60.833 -35 -82.5s-28.5 -38.834 -45.5 -51.501s-36.167 -21.5 -57.5 -26.5
s-45.666 -7.5 -72.999 -7.5l51 131c9.33301 2.66699 17.166 8.5 23.499 17.5s12.833 23.5 19.5 43.5c18 63.333 33.333 115.333 46 156l31.5 100c8.33301 26 14.666 46.333 18.999 61s7.16602 27.667 8.49902 39c2 13.333 0.666992 22.666 -4 27.999s-13.667 8 -27 8z" />
    <glyph glyph-name="E" unicode="E" horiz-adv-x="314" 
d="M252 714h255l-40 -130h-131l-43 -146h125l-40 -130h-125l-53 -178h131l-39 -130h-255z" />
    <glyph glyph-name="F" unicode="F" horiz-adv-x="314" 
d="M252 714h255l-40 -130h-131l-43 -146h125l-40 -130h-125l-92 -308h-124z" />
    <glyph glyph-name="G" unicode="G" horiz-adv-x="383" 
d="M356 29l5.00098 20.001c-7.33301 -12.667 -17.833 -22.334 -31.5 -29.001s-28.834 -11.334 -45.501 -14.001s-33.334 -4 -50.001 -4h-45c-18 0 -35.833 2.16699 -53.5 6.5s-32.667 11.5 -45 21.5s-21 23 -26 39s-4.16699 35.333 2.5 58l131 433
c16.667 58.667 41 101.334 73 128.001s76.333 40 133 40c7.33301 0 14.166 -0.166992 20.499 -0.5s12.166 -0.833008 17.499 -1.5l-48 -140c-3.33301 8 -11.666 12 -24.999 12s-23.666 -3 -30.999 -9s-12.666 -16 -15.999 -30l-122 -404c-4.66699 -14 -5.16699 -24 -1.5 -30
s12.167 -9 25.5 -9c12.667 0 22.5 3 29.5 9s12.833 16 17.5 30l82 259h119z" />
    <glyph glyph-name="H" unicode="H" horiz-adv-x="394" 
d="M252 714h124l-83 -276h72l83 276h124l-215 -714h-124l92 308h-72l-92 -308h-124z" />
    <glyph glyph-name="I" unicode="I" horiz-adv-x="205" 
d="M41 0l215 714h124l-215 -714h-124z" />
    <glyph glyph-name="J" unicode="J" horiz-adv-x="346" 
d="M193 225l-20.001 -65c-5.33301 -16 -6.5 -27.333 -3.5 -34s10.5 -10 22.5 -10s21.333 3.33301 28 10s12.667 18 18 34l167 554h124l-168 -560c-10 -32.667 -21.167 -59.834 -33.5 -81.501s-26.666 -38.834 -42.999 -51.501s-35 -21.667 -56 -27s-44.833 -8 -71.5 -8
c-27.333 0 -50 2.66699 -68 8s-31.5 14.333 -40.5 27s-13.333 29.834 -13 51.501s5.5 48.834 15.5 81.501l21 71h121z" />
    <glyph glyph-name="K" unicode="K" horiz-adv-x="394" 
d="M161 0h-124l215 714h124l-102 -338l199 338h131l-204 -355h-132z" />
    <glyph glyph-name="L" unicode="L" horiz-adv-x="299" 
d="M37 0l215 714h124l-176 -584h131l-39 -130h-255z" />
    <glyph glyph-name="M" unicode="M" horiz-adv-x="582" 
d="M336 148h1l229 566h197l-215 -714h-117l184 610h-2l-260 -610h-124l108 610h-2l-184 -610h-117l215 714h197z" />
    <glyph glyph-name="N" unicode="N" horiz-adv-x="456" 
d="M517 714h117l-215 -714h-156l43 499h-1l-150 -499h-118l215 714h158l-46 -503h2z" />
    <glyph glyph-name="O" unicode="O" 
d="M200 155c-4.66699 -14 -5.16895 -24 -1.50195 -30s12.167 -9 25.5 -9c12.667 0 22.5 3 29.5 9s12.833 16 17.5 30l122 404c3.33301 14 3.33301 24 0 30s-11.333 9 -24 9c-13.333 0 -23.666 -3 -30.999 -9s-12.666 -16 -15.999 -30zM197.998 560
c10 33.333 21.499 60.833 34.499 82.5s28 38.834 45 51.501s36.167 21.5 57.5 26.5s45.666 7.5 72.999 7.5c26.667 0 49.334 -2.5 68.001 -7.5s32.834 -13.833 42.501 -26.5s14.334 -29.834 14.001 -51.501s-5.5 -49.167 -15.5 -82.5l-122 -406
c-10 -33.333 -21.5 -60.833 -34.5 -82.5s-28 -38.834 -45 -51.501s-36.333 -21.5 -58 -26.5s-45.834 -7.5 -72.501 -7.5c-27.333 0 -50.333 2.5 -69 7.5s-32.667 13.833 -42 26.5s-13.833 29.834 -13.5 51.501s5.5 49.167 15.5 82.5z" />
    <glyph glyph-name="P" unicode="P" horiz-adv-x="362" 
d="M232 245c-1.33301 -3.33301 -1.33887 -5.99609 -0.00585938 -7.99609l-71 -237h-124l215 714h153c30.667 0 55.334 -2.5 74.001 -7.5s32.334 -13.833 41.001 -26.5s12.334 -29.334 11.001 -50.001s-6.66602 -47 -15.999 -79l-41 -136
c-9.33301 -32 -19.833 -58.333 -31.5 -79s-25.5 -37.334 -41.5 -50.001s-34.833 -21.5 -56.5 -26.5s-47.834 -7.5 -78.501 -7.5h-6l44 130h4c6.66699 0 12.834 1.16699 18.501 3.5s10.834 7 15.501 14s9.33398 16.667 14.001 29s10 28.166 16 47.499
c8 25.333 13.667 45.333 17 60s4.66602 25.5 3.99902 32.5s-3.16699 11.333 -7.5 13s-10.166 2.5 -17.499 2.5h-32l-56 -187c-0.666992 -0.666992 -1.66699 -2.33398 -3 -5.00098z" />
    <glyph glyph-name="Q" unicode="Q" 
d="M200 155c-4.66699 -14 -5.16699 -23.999 -1.5 -29.999s12.167 -9 25.5 -9c12.667 0 22.5 3 29.5 9s12.833 16 17.5 30l54 181.5l35.5 123.5c9 32.667 15.833 58.334 20.5 77.001s7.5 32.667 8.5 42s0.666992 15 -1 17s-3.83398 3.33301 -6.50098 4l37 128
c24.667 -0.666992 45.5 -3.83398 62.5 -9.50098s29.667 -14.834 38 -27.501s12.5 -29.667 12.5 -51s-5 -48 -15 -80l-122 -406c-8.66699 -28 -18.167 -52 -28.5 -72s-22.166 -36.333 -35.499 -49s-28 -22.5 -44 -29.5s-33.667 -11.5 -53 -13.5l-7 -21
c-3.33301 -11.333 -3.16602 -20.333 0.500977 -27s10.167 -10 19.5 -10h47l-34 -112h-84c-15.333 0 -28.166 1.5 -38.499 4.5s-18 8.5 -23 16.5s-7 19.167 -6 33.5s4.83301 32.833 11.5 55.5l18 61c-37.333 4.66699 -61.333 19.167 -72 43.5
s-7.33398 64.166 9.99902 119.499l122 406c10 33.333 21.5 60.833 34.5 82.5s27.833 38.834 44.5 51.501s35.667 21.5 57 26.5s45.666 7.5 72.999 7.5l-42 -130c-22.667 -0.666992 -37 -13.667 -43 -39l-122 -404v0z" />
    <glyph glyph-name="R" unicode="R" 
d="M161 0l-124.001 0.000976562l186 714h159c26.667 0 49.334 -2.33301 68.001 -7s33 -12.5 43 -23.5s15.667 -25.833 17 -44.5s-1.66699 -42.334 -9 -71.001l-22 -85c-2.66699 -10.667 -6.66699 -21.834 -12 -33.501s-12 -22.5 -20 -32.5s-17.5 -18.667 -28.5 -26
s-23.833 -12.333 -38.5 -15l-1 -2c24.667 -5.33301 40.167 -18.666 46.5 -39.999s3.5 -55 -8.5 -101l-40 -155c-7.33301 -27.333 -11.833 -45.833 -13.5 -55.5s-1.16699 -17.167 1.5 -22.5h-124c-3.33301 11.333 -3.33301 21 0 29l62 243c4.66699 22 -3.33301 34 -24 36
l28 130c12.667 0 23 4.33301 31 13s16 28.667 24 60c7.33301 29.333 10 48.833 8 58.5s-10.333 14.5 -25 14.5h-31z" />
    <glyph glyph-name="S" unicode="S" horiz-adv-x="346" 
d="M359 499l13.0049 40.001c11.333 39.333 5 59 -19 59c-12.667 0 -23 -4.5 -31 -13.5s-15 -24.167 -21 -45.5c-6.66699 -20.667 -7.5 -38.5 -2.5 -53.5s12.667 -29.333 23 -43s21.666 -27.667 33.999 -42s22.833 -31.333 31.5 -51s13.667 -43 15 -70
s-3.66699 -59.833 -15 -98.5c-11.333 -37.333 -23.333 -68.5 -36 -93.5s-27.5 -45 -44.5 -60s-36.667 -25.667 -59 -32s-48.5 -9.5 -78.5 -9.5h-18l46 131c17.333 -2.66699 30.666 0.5 39.999 9.5s17.666 25.167 24.999 48.5c7.33301 24.667 8.66602 45.5 3.99902 62.5
s-12.167 32.5 -22.5 46.5s-21.833 28.167 -34.5 42.5s-23.334 31.166 -32.001 50.499s-13.667 42.333 -15 69s4 60 16 100c10 32 21.167 59.5 33.5 82.5s26.833 41.833 43.5 56.5s36.167 25.5 58.5 32.5s48.5 10.5 78.5 10.5c52.667 0 88 -13 106 -39
s17.667 -70.667 -1 -134l-17 -56h-121z" />
    <glyph glyph-name="T" unicode="T" horiz-adv-x="314" 
d="M270 584h-92l40 130h308l-40 -130h-92l-175 -584h-124z" />
    <glyph glyph-name="U" unicode="U" 
d="M395 154c-10 -33.333 -21.5 -60.833 -34.5 -82.5s-28 -38.834 -45 -51.501s-36.333 -21.5 -58 -26.5s-45.834 -7.5 -72.501 -7.5c-27.333 0 -50.333 2.5 -69 7.5s-32.667 13.833 -42 26.5s-13.833 29.834 -13.5 51.501s5.5 49.167 15.5 82.5l168 560h124l-162 -538
c-7.33301 -25.333 -9.5 -41.666 -6.5 -48.999s11.167 -11 24.5 -11c12.667 0 22.834 3.66699 30.501 11s15.167 23.666 22.5 48.999l162 538h124z" />
    <glyph glyph-name="V" unicode="V" 
d="M589 714l-318 -714h-165l112 714h129l-110 -553h2l223 553h127z" />
    <glyph glyph-name="W" unicode="W" horiz-adv-x="614" 
d="M218 714h129l-118 -558h2l221 558h140l-113 -559h1l217 559h128l-308 -714h-157l112 546h-2l-217 -546h-156z" />
    <glyph glyph-name="X" unicode="X" horiz-adv-x="409" 
d="M248 372l-18.999 342.001h130l10 -155.5c2.66699 -43 5.16699 -81.167 7.5 -114.5s4.33301 -64.333 6 -93s3.66699 -59.334 6 -92.001s4.66602 -69.5 6.99902 -110.5s5.5 -90.5 9.5 -148.5h-131l-3 219l-136 -219h-132z" />
    <glyph glyph-name="Y" unicode="Y" horiz-adv-x="394" 
d="M333 457h2l140 257h130l-265 -442l-82 -272h-124l82 272l2 442h130z" />
    <glyph glyph-name="Z" unicode="Z" horiz-adv-x="331" 
d="M19 0l39 130l284 454h-144l40 130h285l-40 -130l-291 -454h169l-39 -130h-303z" />
    <glyph glyph-name="bracketleft" unicode="[" horiz-adv-x="252" 
d="M48 0l215 714h171l-30 -100h-76l-155 -514h76l-30 -100h-171z" />
    <glyph glyph-name="backslash" unicode="\" horiz-adv-x="476" 
d="M259 725l223 -738h-95l-224 738h96z" />
    <glyph glyph-name="bracketright" unicode="]" horiz-adv-x="252" 
d="M32 0l30 100h77l155 514h-77l30 100h172l-215 -714h-172z" />
    <glyph glyph-name="asciicircum" unicode="^" horiz-adv-x="510" 
d="M155 321l267 375h85l39 -375h-93l-23 264l-181 -264h-94z" />
    <glyph glyph-name="underscore" unicode="_" horiz-adv-x="425" 
d="M-46 -152l23 77h425l-23 -77h-425z" />
    <glyph glyph-name="grave" unicode="`" horiz-adv-x="174" 
d="M448 817h-121l-154 154h120z" />
    <glyph glyph-name="a" unicode="a" 
d="M235 256h60l74 338h-1zM3 0l318 714h165l-112 -714h-128l23 126h-86l-50 -126h-130z" />
    <glyph glyph-name="b" unicode="b" 
d="M200 130h28.998c8.66699 0 16.167 1 22.5 3s12 6 17 12s9.83301 14.833 14.5 26.5s10.334 27.5 17.001 47.5c6 20 10 36 12 48s2.33301 21 1 27s-4.66602 9.83301 -9.99902 11.5s-12.333 2.5 -21 2.5h-29zM161.998 439l163.002 -0.998047
c6.66699 0 12.5 0.833008 17.5 2.5s9.66699 5 14 10s8.5 12.167 12.5 21.5s8.33301 21.666 13 36.999c8 9.33301 11 20 9 32c3.33301 17.333 3.16602 28.833 -0.500977 34.5s-11.167 8.5 -22.5 8.5h-3c-1.33301 0 -3.33301 0.166992 -6 0.5
s-8.83398 0.666016 -18.501 0.999023s-24.5 0.5 -44.5 0.5h-83l39 128h181c48 0 78.833 -12.333 92.5 -37s13.5 -61 -0.5 -109l-19 -62c-8 -27.333 -20.667 -53 -38 -77s-42.666 -41.667 -75.999 -53l-1 -2c49.333 -10 63.666 -50.333 42.999 -121l-33 -107
c-14.667 -48 -36.167 -84.333 -64.5 -109s-66.5 -37 -114.5 -37h-185z" />
    <glyph glyph-name="c" unicode="c" horiz-adv-x="362" 
d="M198 560c16.667 58.667 41.001 101.333 73.001 128s76.333 40 133 40s93 -13.167 109 -39.5s15.333 -69.166 -2 -128.499l-30 -101h-124l31 107c3.33301 10.667 2.5 18.667 -2.5 24s-11.833 8 -20.5 8c-11.333 0 -20.666 -3.5 -27.999 -10.5s-14 -20.167 -20 -39.5
l-115 -382c-5.33301 -19.333 -6.5 -32.5 -3.5 -39.5s10.167 -10.5 21.5 -10.5c7.33301 0 14.666 2 21.999 6l-37 -135c-4 0 -8 -0.166992 -12 -0.5s-8 -0.5 -12 -0.5c-56.667 0 -92.834 13.167 -108.501 39.5s-14.5 69.166 3.5 128.499z" />
    <glyph glyph-name="d" unicode="d" 
d="M215 585l37.002 129.003h153c27.333 0 50.333 -2.5 69 -7.5s32.667 -13.833 42 -26.5s13.833 -29.834 13.5 -51.501s-5.5 -49.167 -15.5 -82.5l-113 -378c-10 -33.333 -21.667 -60.833 -35 -82.5s-28.5 -38.834 -45.5 -51.501s-36.167 -21.5 -57.5 -26.5
s-45.666 -7.5 -72.999 -7.5l51 131c9.33301 2.66699 17.166 8.5 23.499 17.5s12.833 23.5 19.5 43.5c18 63.333 33.333 115.333 46 156l31.5 100c8.33301 26 14.666 46.333 18.999 61s7.16602 27.667 8.49902 39c2 13.333 0.666992 22.666 -4 27.999s-13.667 8 -27 8z" />
    <glyph glyph-name="e" unicode="e" horiz-adv-x="314" 
d="M252 714h255l-40 -130h-131l-43 -146h125l-40 -130h-125l-53 -178h131l-39 -130h-255z" />
    <glyph glyph-name="f" unicode="f" horiz-adv-x="314" 
d="M252 714h255l-40 -130h-131l-43 -146h125l-40 -130h-125l-92 -308h-124z" />
    <glyph glyph-name="g" unicode="g" horiz-adv-x="383" 
d="M356 29l5.00098 20.001c-7.33301 -12.667 -17.833 -22.334 -31.5 -29.001s-28.834 -11.334 -45.501 -14.001s-33.334 -4 -50.001 -4h-45c-18 0 -35.833 2.16699 -53.5 6.5s-32.667 11.5 -45 21.5s-21 23 -26 39s-4.16699 35.333 2.5 58l131 433
c16.667 58.667 41 101.334 73 128.001s76.333 40 133 40c7.33301 0 14.166 -0.166992 20.499 -0.5s12.166 -0.833008 17.499 -1.5l-48 -140c-3.33301 8 -11.666 12 -24.999 12s-23.666 -3 -30.999 -9s-12.666 -16 -15.999 -30l-122 -404c-4.66699 -14 -5.16699 -24 -1.5 -30
s12.167 -9 25.5 -9c12.667 0 22.5 3 29.5 9s12.833 16 17.5 30l82 259h119z" />
    <glyph glyph-name="h" unicode="h" horiz-adv-x="394" 
d="M252 714h124l-83 -276h72l83 276h124l-215 -714h-124l92 308h-72l-92 -308h-124z" />
    <glyph glyph-name="i" unicode="i" horiz-adv-x="205" 
d="M41 0l215 714h124l-215 -714h-124z" />
    <glyph glyph-name="j" unicode="j" horiz-adv-x="346" 
d="M193 225l-20.001 -65c-5.33301 -16 -6.5 -27.333 -3.5 -34s10.5 -10 22.5 -10s21.333 3.33301 28 10s12.667 18 18 34l167 554h124l-168 -560c-10 -32.667 -21.167 -59.834 -33.5 -81.501s-26.666 -38.834 -42.999 -51.501s-35 -21.667 -56 -27s-44.833 -8 -71.5 -8
c-27.333 0 -50 2.66699 -68 8s-31.5 14.333 -40.5 27s-13.333 29.834 -13 51.501s5.5 48.834 15.5 81.501l21 71h121z" />
    <glyph glyph-name="k" unicode="k" horiz-adv-x="394" 
d="M161 0h-124l215 714h124l-102 -338l199 338h131l-204 -355h-132z" />
    <glyph glyph-name="l" unicode="l" horiz-adv-x="299" 
d="M37 0l215 714h124l-176 -584h131l-39 -130h-255z" />
    <glyph glyph-name="m" unicode="m" horiz-adv-x="582" 
d="M336 148h1l229 566h197l-215 -714h-117l184 610h-2l-260 -610h-124l108 610h-2l-184 -610h-117l215 714h197z" />
    <glyph glyph-name="n" unicode="n" horiz-adv-x="456" 
d="M517 714h117l-215 -714h-156l43 499h-1l-150 -499h-118l215 714h158l-46 -503h2z" />
    <glyph glyph-name="o" unicode="o" 
d="M200 155c-4.66699 -14 -5.16895 -24 -1.50195 -30s12.167 -9 25.5 -9c12.667 0 22.5 3 29.5 9s12.833 16 17.5 30l122 404c3.33301 14 3.33301 24 0 30s-11.333 9 -24 9c-13.333 0 -23.666 -3 -30.999 -9s-12.666 -16 -15.999 -30zM197.998 560
c10 33.333 21.499 60.833 34.499 82.5s28 38.834 45 51.501s36.167 21.5 57.5 26.5s45.666 7.5 72.999 7.5c26.667 0 49.334 -2.5 68.001 -7.5s32.834 -13.833 42.501 -26.5s14.334 -29.834 14.001 -51.501s-5.5 -49.167 -15.5 -82.5l-122 -406
c-10 -33.333 -21.5 -60.833 -34.5 -82.5s-28 -38.834 -45 -51.501s-36.333 -21.5 -58 -26.5s-45.834 -7.5 -72.501 -7.5c-27.333 0 -50.333 2.5 -69 7.5s-32.667 13.833 -42 26.5s-13.833 29.834 -13.5 51.501s5.5 49.167 15.5 82.5z" />
    <glyph glyph-name="p" unicode="p" horiz-adv-x="362" 
d="M232 245c-1.33301 -3.33301 -1.33887 -5.99609 -0.00585938 -7.99609l-71 -237h-124l215 714h153c30.667 0 55.334 -2.5 74.001 -7.5s32.334 -13.833 41.001 -26.5s12.334 -29.334 11.001 -50.001s-6.66602 -47 -15.999 -79l-41 -136
c-9.33301 -32 -19.833 -58.333 -31.5 -79s-25.5 -37.334 -41.5 -50.001s-34.833 -21.5 -56.5 -26.5s-47.834 -7.5 -78.501 -7.5h-6l44 130h4c6.66699 0 12.834 1.16699 18.501 3.5s10.834 7 15.501 14s9.33398 16.667 14.001 29s10 28.166 16 47.499
c8 25.333 13.667 45.333 17 60s4.66602 25.5 3.99902 32.5s-3.16699 11.333 -7.5 13s-10.166 2.5 -17.499 2.5h-32l-56 -187c-0.666992 -0.666992 -1.66699 -2.33398 -3 -5.00098z" />
    <glyph glyph-name="q" unicode="q" 
d="M200 155c-4.66699 -14 -5.16699 -23.999 -1.5 -29.999s12.167 -9 25.5 -9c12.667 0 22.5 3 29.5 9s12.833 16 17.5 30l54 181.5l35.5 123.5c9 32.667 15.833 58.334 20.5 77.001s7.5 32.667 8.5 42s0.666992 15 -1 17s-3.83398 3.33301 -6.50098 4l37 128
c24.667 -0.666992 45.5 -3.83398 62.5 -9.50098s29.667 -14.834 38 -27.501s12.5 -29.667 12.5 -51s-5 -48 -15 -80l-122 -406c-8.66699 -28 -18.167 -52 -28.5 -72s-22.166 -36.333 -35.499 -49s-28 -22.5 -44 -29.5s-33.667 -11.5 -53 -13.5l-7 -21
c-3.33301 -11.333 -3.16602 -20.333 0.500977 -27s10.167 -10 19.5 -10h47l-34 -112h-84c-15.333 0 -28.166 1.5 -38.499 4.5s-18 8.5 -23 16.5s-7 19.167 -6 33.5s4.83301 32.833 11.5 55.5l18 61c-37.333 4.66699 -61.333 19.167 -72 43.5
s-7.33398 64.166 9.99902 119.499l122 406c10 33.333 21.5 60.833 34.5 82.5s27.833 38.834 44.5 51.501s35.667 21.5 57 26.5s45.666 7.5 72.999 7.5l-42 -130c-22.667 -0.666992 -37 -13.667 -43 -39l-122 -404v0z" />
    <glyph glyph-name="r" unicode="r" 
d="M161 0l-124.001 0.000976562l186 714h159c26.667 0 49.334 -2.33301 68.001 -7s33 -12.5 43 -23.5s15.667 -25.833 17 -44.5s-1.66699 -42.334 -9 -71.001l-22 -85c-2.66699 -10.667 -6.66699 -21.834 -12 -33.501s-12 -22.5 -20 -32.5s-17.5 -18.667 -28.5 -26
s-23.833 -12.333 -38.5 -15l-1 -2c24.667 -5.33301 40.167 -18.666 46.5 -39.999s3.5 -55 -8.5 -101l-40 -155c-7.33301 -27.333 -11.833 -45.833 -13.5 -55.5s-1.16699 -17.167 1.5 -22.5h-124c-3.33301 11.333 -3.33301 21 0 29l62 243c4.66699 22 -3.33301 34 -24 36
l28 130c12.667 0 23 4.33301 31 13s16 28.667 24 60c7.33301 29.333 10 48.833 8 58.5s-10.333 14.5 -25 14.5h-31z" />
    <glyph glyph-name="s" unicode="s" horiz-adv-x="346" 
d="M359 499l13.0049 40.001c11.333 39.333 5 59 -19 59c-12.667 0 -23 -4.5 -31 -13.5s-15 -24.167 -21 -45.5c-6.66699 -20.667 -7.5 -38.5 -2.5 -53.5s12.667 -29.333 23 -43s21.666 -27.667 33.999 -42s22.833 -31.333 31.5 -51s13.667 -43 15 -70
s-3.66699 -59.833 -15 -98.5c-11.333 -37.333 -23.333 -68.5 -36 -93.5s-27.5 -45 -44.5 -60s-36.667 -25.667 -59 -32s-48.5 -9.5 -78.5 -9.5h-18l46 131c17.333 -2.66699 30.666 0.5 39.999 9.5s17.666 25.167 24.999 48.5c7.33301 24.667 8.66602 45.5 3.99902 62.5
s-12.167 32.5 -22.5 46.5s-21.833 28.167 -34.5 42.5s-23.334 31.166 -32.001 50.499s-13.667 42.333 -15 69s4 60 16 100c10 32 21.167 59.5 33.5 82.5s26.833 41.833 43.5 56.5s36.167 25.5 58.5 32.5s48.5 10.5 78.5 10.5c52.667 0 88 -13 106 -39
s17.667 -70.667 -1 -134l-17 -56h-121z" />
    <glyph glyph-name="t" unicode="t" horiz-adv-x="314" 
d="M270 584h-92l40 130h308l-40 -130h-92l-175 -584h-124z" />
    <glyph glyph-name="u" unicode="u" 
d="M395 154c-10 -33.333 -21.5 -60.833 -34.5 -82.5s-28 -38.834 -45 -51.501s-36.333 -21.5 -58 -26.5s-45.834 -7.5 -72.501 -7.5c-27.333 0 -50.333 2.5 -69 7.5s-32.667 13.833 -42 26.5s-13.833 29.834 -13.5 51.501s5.5 49.167 15.5 82.5l168 560h124l-162 -538
c-7.33301 -25.333 -9.5 -41.666 -6.5 -48.999s11.167 -11 24.5 -11c12.667 0 22.834 3.66699 30.501 11s15.167 23.666 22.5 48.999l162 538h124z" />
    <glyph glyph-name="v" unicode="v" 
d="M589 714l-318 -714h-165l112 714h129l-110 -553h2l223 553h127z" />
    <glyph glyph-name="w" unicode="w" horiz-adv-x="614" 
d="M218 714h129l-118 -558h2l221 558h140l-113 -559h1l217 559h128l-308 -714h-157l112 546h-2l-217 -546h-156z" />
    <glyph glyph-name="x" unicode="x" horiz-adv-x="409" 
d="M248 372l-19 342h130l46 -714h-131l-3 219l-136 -219h-132z" />
    <glyph glyph-name="y" unicode="y" horiz-adv-x="394" 
d="M333 457h2l140 257h130l-265 -442l-82 -272h-124l82 272l2 442h130z" />
    <glyph glyph-name="z" unicode="z" horiz-adv-x="331" 
d="M19 0l39 130l284 454h-144l40 130h285l-40 -130l-291 -454h169l-39 -130h-303z" />
    <glyph glyph-name="braceleft" unicode="{" horiz-adv-x="237" 
d="M118 308l29 100.001c11.333 0 22.166 4.16699 32.499 12.5s18.166 21.833 23.499 40.5l43 149c10 34 24 59.833 42 77.5s40.333 26.5 67 26.5h59l-29 -100h-15c-12.667 0 -22.167 -3 -28.5 -9s-12.166 -17.667 -17.499 -35l-38 -130c-4 -14 -9.66699 -26 -17 -36
s-15.166 -18 -23.499 -24s-16.666 -10.667 -24.999 -14s-15.5 -5.66602 -21.5 -6.99902l-1 -2c5.33301 -0.666992 11.333 -2.16699 18 -4.5s12.5 -6.5 17.5 -12.5s8.33301 -13.833 10 -23.5s0.5 -21.834 -3.5 -36.501l-40 -136c-5.33301 -17.333 -6.5 -29 -3.5 -35
s11.167 -9 24.5 -9h14l-29 -100h-59c-26.667 0 -43.834 8.83301 -51.501 26.5s-6.5 43.5 3.5 77.5l43 149c6 19.333 6 33.166 0 41.499s-14 12.833 -24 13.5z" />
    <glyph glyph-name="bar" unicode="|" horiz-adv-x="178" 
d="M317 854h90l-364 -999h-90z" />
    <glyph glyph-name="braceright" unicode="}" horiz-adv-x="237" 
d="M356 408l-36.002 -100.003c-10 -0.666992 -20.667 -5.16699 -32 -13.5s-20.666 -22.166 -27.999 -41.499l-54 -149c-12.667 -34 -28.5 -59.833 -47.5 -77.5s-41.833 -26.5 -68.5 -26.5h-60l36 100h15c12.667 0 22.5 3 29.5 9s13.5 17.667 19.5 35l50 136
c5.33301 14.667 12 26.834 20 36.501s16.5 17.5 25.5 23.5s17.667 10.333 26 13s15.166 4 20.499 4l1 2c-5.33301 2 -11.166 4.5 -17.499 7.5s-11.666 7.5 -15.999 13.5s-7 13.833 -8 23.5s1.16699 21.834 6.5 36.501l47 130c6.66699 17.333 8.66699 29 6 35
s-10.334 9 -23.001 9h-15l37 100h60c26.667 0 43 -8.83301 49 -26.5s3 -43.5 -9 -77.5l-54 -149c-7.33301 -18.667 -8.66602 -32.167 -3.99902 -40.5s12.667 -12.5 24 -12.5z" />
    <glyph glyph-name="asciitilde" unicode="~" horiz-adv-x="480" 
d="M522 348l-4 -89.998c-19.333 -25.333 -39.666 -46 -60.999 -62s-44.333 -24 -69 -24c-12.667 0 -25.167 2.83301 -37.5 8.5s-25.833 13.5 -40.5 23.5l-13 9c-12.667 9.33301 -23.167 16.166 -31.5 20.499s-16.5 6.5 -24.5 6.5c-14 0 -28.333 -6.33301 -43 -19
s-32 -30.334 -52 -53.001l4 90c19.333 25.333 39.666 46 60.999 62s44.333 24 69 24c12.667 0 25.167 -2.83301 37.5 -8.5s25.833 -13.5 40.5 -23.5l13 -9c12.667 -8.66699 23 -15.334 31 -20.001s16 -7 24 -7c14 0 28.5 6.33301 43.5 19s32.5 30.334 52.5 53.001z" />
    <glyph glyph-name="exclamdown" unicode="&#xa1;" horiz-adv-x="227" 
d="M174 413l39 130h111l-39 -130h-111zM160 329h89l-133 -500h-125z" />
    <glyph glyph-name="cent" unicode="&#xa2;" horiz-adv-x="362" 
d="M240 122c7.33301 -0.666992 17 -0.666992 29 0s21.333 2 28 4l-75 -224h-52l29 85c-3.33301 0 -6.33301 -0.166992 -9 -0.5s-5.66699 -0.5 -9 -0.5c-56.667 0 -92.834 13.167 -108.501 39.5s-14.5 69.166 3.5 128.499l122 406
c15.333 54.667 37.166 95.334 65.499 122.001s67.166 41.667 116.499 45l20 67h52l-20 -68c44.667 -4 72.834 -19.167 84.501 -45.5s9.83398 -66.5 -5.49902 -120.5l-30 -101h-124l31 107c3.33301 10.667 2.5 18.667 -2.5 24s-11.833 8 -20.5 8
c-11.333 0 -20.666 -3.5 -27.999 -10.5s-14 -20.167 -20 -39.5l-115 -382c-5.33301 -19.333 -6.5 -32.5 -3.5 -39.5s10.167 -10.5 21.5 -10.5c6 0 12.333 1.66699 19 5l1 1v0z" />
    <glyph glyph-name="sterling" unicode="&#xa3;" horiz-adv-x="341" 
d="M14 0c12.667 44 28.8301 79.167 48.4971 105.5s44.5 41.166 74.5 44.499c4.66699 2.66699 12.167 3.83398 22.5 3.50098s21.333 -1.5 33 -3.5s22.667 -4.83301 33 -8.5s18.166 -7.5 23.499 -11.5c17.333 -9.33301 29 -14 35 -14c5.33301 0 9.5 2.5 12.5 7.5
s6.16699 11.167 9.5 18.5l2 6h73c-14 -48 -32.5 -86.167 -55.5 -114.5s-52.5 -42.5 -88.5 -42.5c-11.333 0 -22.166 1.83301 -32.499 5.5s-23.166 9.16699 -38.499 16.5c-19.333 10.667 -32.666 16 -39.999 16c-8 0 -15.667 -2.5 -23 -7.5s-12.666 -12.167 -15.999 -21.5
h-73zM93.9961 277l21.001 74h53c-2 10.667 -3 24 -3 40s0.5 32.667 1.5 50s2.83301 34.666 5.5 51.999s6 33 10 47c16 54 41.333 95.167 76 123.5s78 42.5 130 42.5c48 0 78.333 -15 91 -45s10 -76 -8 -138l-10 -37h-104l9 31c5.33301 18.667 5.66602 33.667 0.999023 45
s-12 17 -22 17c-22 0 -39 -18 -51 -54c-3.33301 -10.667 -5.33301 -22.667 -6 -36s-0.666992 -32.666 0 -57.999v-19v-23v-23v-15h80l-22 -74h-252z" />
    <glyph glyph-name="currency" unicode="&#xa4;" horiz-adv-x="462" 
d="M350 342l-47.998 -175.999c-5.33301 -19.333 -6.5 -32.5 -3.5 -39.5s10.167 -10.5 21.5 -10.5c7.33301 0 14.666 2 21.999 6l-37 -135c-4 0 -8 -0.166992 -12 -0.5s-8 -0.5 -12 -0.5c-56.667 0 -92.834 13.167 -108.501 39.5s-14.5 69.166 3.5 128.499l28 95h-94l34 93
h206zM195.002 478.001l77.999 -0.00195312l25 82c16.667 58.667 41 101.334 73 128.001s76.333 40 133 40s93 -13.167 109 -39.5s15.333 -69.166 -2 -128.499l-30 -101h-124l31 107c3.33301 10.667 2.5 18.667 -2.5 24s-11.833 8 -20.5 8
c-11.333 0 -20.666 -3.5 -27.999 -10.5s-14 -20.167 -20 -39.5l-48 -156l-201 1z" />
    <glyph glyph-name="yen" unicode="&#xa5;" horiz-adv-x="341" 
d="M435 304l-21 -56h-98l-90 -248h-113l90 248h-95l21 56h306zM155 377l21 56h60l28 263h110l-39 -243h2l136 243h110l-161 -263h60l-21 -56h-306z" />
    <glyph glyph-name="brokenbar" unicode="&#xa6;" horiz-adv-x="178" 
d="M241 759h89l-102 -350h-90zM95 259h90l-102 -349h-89z" />
    <glyph glyph-name="section" unicode="&#xa7;" horiz-adv-x="385" 
d="M268 208c19.333 0 34.501 5.33301 45.501 16s20.833 27.667 29.5 51c9.33301 24 12.166 41.333 8.49902 52s-15.167 16 -34.5 16s-34.5 -5.33301 -45.5 -16s-21.167 -28 -30.5 -52c-8.66699 -23.333 -11.167 -40.333 -7.5 -51s15.167 -16 34.5 -16zM418.001 524
l10.002 31.001c4.66699 12.667 5.66699 23.167 3 31.5s-9 12.5 -19 12.5c-20.667 0 -37.667 -18.667 -51 -56c-6 -16.667 -5.66699 -30 1 -40s19.667 -21.333 39 -34c14 -10 26 -19.5 36 -28.5s18 -20.833 24 -35.5c7.33301 -14 10.833 -31.667 10.5 -53
s-6.16602 -47 -17.499 -77c-18 -49.333 -36.167 -84.666 -54.5 -105.999s-40.833 -34.666 -67.5 -39.999l-1 -2c4 -0.666992 7.66699 -3.33398 11 -8.00098s5.66602 -11.834 6.99902 -21.501s1 -21.834 -1 -36.501s-6.66699 -32.667 -14 -54
c-20.667 -56.667 -47.5 -98.5 -80.5 -125.5s-73.5 -40.5 -121.5 -40.5h-8l26 109l23 2c20 0 36.667 18 50 54c6.66699 17.333 6.33398 31.333 -0.999023 42s-20.666 23 -39.999 37c-15.333 11.333 -27.333 21.333 -36 30s-16.334 20 -23.001 34s-9.83398 31 -9.50098 51
s5.16602 43.333 14.499 70c18 49.333 37 85.5 57 108.5s43.333 37.833 70 44.5l1 2c-8 2.66699 -13 15.667 -15 39c-1.33301 24 3.66699 50.667 15 80c20.667 56.667 47.167 98.5 79.5 125.5s71.166 40.5 116.499 40.5s74.5 -11.667 87.5 -35s10.167 -61 -8.5 -113l-14 -38
h-99z" />
    <glyph glyph-name="dieresis" unicode="&#xa8;" horiz-adv-x="385" 
d="M274 969l-39 -130h-110l39 130h110zM472 968l-39 -130h-110l39 130h110z" />
    <glyph glyph-name="copyright" unicode="&#xa9;" horiz-adv-x="640" 
d="M360 480c10.667 36.667 25.665 63.165 44.998 79.498s46.666 24.5 81.999 24.5s57.833 -8.16699 67.5 -24.5s9.16699 -42.833 -1.5 -79.5l-19 -62h-76l20 65c1.33301 6.66699 0.5 11.667 -2.5 15s-7.16699 5 -12.5 5c-7.33301 0 -13.166 -2.16699 -17.499 -6.5
s-8.16602 -12.166 -11.499 -23.499l-72 -237c-3.33301 -11.333 -4 -19.166 -2 -23.499s6.33301 -6.5 13 -6.5s11.334 1 14.001 3l-23 -83c-2.66699 0 -5.16699 -0.166992 -7.5 -0.5s-4.5 -0.5 -6.5 -0.5c-35.333 0 -58 8.16699 -68 24.5s-9.33301 42.833 2 79.5l76 251v0z
M340.998 71.998c27.333 0 55.166 6.16406 83.499 18.4971s55.333 29.5 81 51.5s49.334 48.5 71.001 79.5s39.5 65.167 53.5 102.5h89c-18 -52 -42 -99 -72 -141s-63.167 -77.5 -99.5 -106.5s-74.5 -51.333 -114.5 -67s-79 -23.167 -117 -22.5
c-38.667 0 -73.5 7.66699 -104.5 23s-56.167 37.5 -75.5 66.5s-31.833 64.5 -37.5 106.5s-2.16699 89.667 10.5 143h90c-8 -37.333 -10.333 -71.666 -7 -102.999s11.333 -58.166 24 -80.499s29.667 -39.666 51 -51.999s46 -18.5 74 -18.5zM125.998 382.995
c18 53.333 42.0029 101.334 72.0029 144.001s63.167 78.834 99.5 108.501s74.666 52.5 114.999 68.5s80.166 24 119.499 24c38.667 0 73.5 -7.83301 104.5 -23.5s56 -38 75 -67s31.333 -64.5 37 -106.5s2.16699 -89.333 -10.5 -142h-89c8 37.333 10.167 71.5 6.5 102.5
s-11.834 57.667 -24.501 80s-29.667 39.666 -51 51.999s-45.666 18.5 -72.999 18.5c-28.667 0 -57.334 -6.33301 -86.001 -19s-56 -30.334 -82 -53.001s-49.667 -50 -71 -82s-39 -67 -53 -105h-89v0z" />
    <glyph glyph-name="guillemotleft" unicode="&#xab;" horiz-adv-x="326" 
d="M110 258l123 125h83l-123 -125l32 -125h-83zM243 258l122 125h84l-123 -125l32 -125h-84z" />
    <glyph glyph-name="logicalnot" unicode="&#xac;" horiz-adv-x="1024" 
d="M411 405l-12 -178h-48l-13 178h73zM906 715h-193v-125h103v52h47v-151h-47v51h-153v221h294l3 -140h-46zM699 43l124 0.000976562c14 0 28.5 0.333008 43.5 1s29 3.16699 42 7.5s23.667 11 32 20s12.5 22.167 12.5 39.5s-5.33301 30.833 -16 40.5
s-22.834 16.667 -36.501 21s-27.167 7 -40.5 8s-22.666 1.5 -27.999 1.5h-103v48h114c23.333 0 43.333 6.16699 60 18.5s25 27.833 25 46.5c0 5.33301 -1.16699 11.5 -3.5 18.5s-7 13.667 -14 20s-16.5 11.666 -28.5 15.999s-28 6.5 -48 6.5h-266l128 -312h3v-1zM90 356.001
v-312h554l-32 79h-230l20 47h192l-75 186h-2v48h53v139h-232v173h-108v-360h-140zM41 403.001l139 0.00195312v313h-109l-4 -58h-49l9 106h415v-48h-53v-125h231v-188h292l4 93h47v-140h-3c7.33301 -8.66699 12.333 -17.834 15 -27.501s4 -20.167 4 -31.5
c0 -20.667 -5.16699 -38.5 -15.5 -53.5s-23.833 -26.5 -40.5 -34.5c24.667 -8 44.5 -20.333 59.5 -37s22.5 -39.334 22.5 -68.001c0 -14.667 -3.16699 -28.5 -9.5 -41.5s-15.5 -24.5 -27.5 -34.5s-26.667 -17.833 -44 -23.5s-37 -8.5 -59 -8.5h-824v407z" />
    <glyph glyph-name="registered" unicode="&#xae;" horiz-adv-x="640" 
d="M351 148l91 347h19c8.66699 0 13.5 -3 14.5 -9s-0.5 -17.667 -4.5 -35c-5.33301 -18.667 -10.333 -30.5 -15 -35.5s-10.667 -7.5 -18 -7.5l-17 -77c13.333 -1.33301 18.333 -8.33301 15 -21l-37 -145c-2 -4.66699 -2 -10.334 0 -17.001h74
c-2 3.33301 -2.5 7.83301 -1.5 13.5s3.5 16.5 7.5 32.5l24 93c7.33301 26.667 9 46.334 5 59.001s-13 20.667 -27 24v1c18 3.33301 31.5 11.5 40.5 24.5s15.167 26.167 18.5 39.5l14 50c8.66699 34 7 57 -5 69s-34 18 -66 18h-95l-110 -424h73zM341 72
c27.333 0 55.166 6.16406 83.499 18.4971s55.333 29.5 81 51.5s49.334 48.5 71.001 79.5s39.5 65.167 53.5 102.5h89c-18 -52 -42 -99 -72 -141s-63.167 -77.5 -99.5 -106.5s-74.5 -51.333 -114.5 -67s-79 -23.167 -117 -22.5c-38.667 0 -73.5 7.66699 -104.5 23
s-56.167 37.5 -75.5 66.5s-31.833 64.5 -37.5 106.5s-2.16699 89.667 10.5 143h90c-8 -37.333 -10.333 -71.666 -7 -102.999s11.333 -58.166 24 -80.499s29.667 -39.666 51 -51.999s46 -18.5 74 -18.5zM126 382.997c18 53.333 42.0029 101.334 72.0029 144.001
s63.167 78.834 99.5 108.501s74.666 52.5 114.999 68.5s80.166 24 119.499 24c38.667 0 73.5 -7.83301 104.5 -23.5s56 -38 75 -67s31.333 -64.5 37 -106.5s2.16699 -89.333 -10.5 -142h-89c8 37.333 10.167 71.5 6.5 102.5s-11.834 57.667 -24.501 80
s-29.667 39.666 -51 51.999s-45.666 18.5 -72.999 18.5c-28.667 0 -57.334 -6.33301 -86.001 -19s-56 -30.334 -82 -53.001s-49.667 -50 -71 -82s-39 -67 -53 -105h-89v0z" />
    <glyph glyph-name="macron" unicode="&#xaf;" horiz-adv-x="268" 
d="M79 882l41 89l261 -1l-41 -89z" />
    <glyph glyph-name="degree" unicode="&#xb0;" horiz-adv-x="294" 
d="M386 474c-8.66699 -30.667 -22.8311 -53.998 -42.498 -69.998s-39.167 -24 -58.5 -24h-17l26 77c11.333 5.33301 18.666 13.666 21.999 24.999l38 128c2.66699 6.66699 2.83398 12.834 0.500977 18.501s-7.83301 8.5 -16.5 8.5c-8 0 -15.167 -2.83301 -21.5 -8.5
s-10.833 -11.834 -13.5 -18.501l-38 -128c-2 -6.66699 -1.66699 -12.834 1 -18.501s7.66699 -8.5 15 -8.5l-25 -75h-22c-19.333 0 -33.833 8 -43.5 24s-10.167 39.333 -1.5 70l44 144c9.33301 30.667 23.666 54 42.999 70s38.666 24 57.999 24h51c19.333 0 34 -8 44 -24
s10.333 -39.333 1 -70z" />
    <glyph glyph-name="plusminus" unicode="&#xb1;" horiz-adv-x="510" 
d="M409 518h-96l54 184h96zM306 501h96v-1h171l-35 -112h-171l-60 -202h-96l60 202h-171l35 112h171v1zM448 28h-438l34 112h438z" />
    <glyph glyph-name="acute" unicode="&#xb4;" horiz-adv-x="174" 
d="M329 971h120l-157 -153l-120 -1z" />
    <glyph glyph-name="mu" unicode="&#xb5;" horiz-adv-x="341" 
d="M499 516l-187.999 -516h-109l25 68h-1c-11.333 -17.333 -24.333 -33 -39 -47s-30.334 -23.333 -47.001 -28l-62 -172h-113l253 695h113l-136 -374c-11.333 -29.333 -8.33301 -44 9 -44c8 0 16.333 3.83301 25 11.5s15.667 18.5 21 32.5l136 374h113z" />
    <glyph glyph-name="paragraph" unicode="&#xb6;" horiz-adv-x="496" 
d="M262 650c41.333 42.667 100 64 176 64h219l-19 -64h-376v0zM602 529l-405 -0.000976562c0.666992 1.33301 1 2.33301 1 3s0.333008 1.66699 1 3l10 29.5c3.33301 9.66699 7.33301 18.834 12 27.501h400zM318 361.999c-43.333 0 -76 10.333 -98 31s-32.333 49.667 -31 87
h399l-150 -516h-88l118 395h-56l-162 -538h-89z" />
    <glyph glyph-name="periodcentered" unicode="&#xb7;" horiz-adv-x="181" 
d="M284 434l-39 -130h-110l39 130h110z" />
    <glyph glyph-name="periodcentered" unicode="&#x2219;" horiz-adv-x="181" 
d="M284 434l-39 -130h-110l39 130h110z" />
    <glyph glyph-name="cedilla" unicode="&#xb8;" horiz-adv-x="178" 
d="M77 0h39.998l-54 -58c10.667 2 20.667 3 30 3c18.667 0 31.5 -7.16699 38.5 -21.5s5.83301 -33.5 -3.5 -57.5c-9.33301 -26 -25.666 -46.667 -48.999 -62s-49 -23 -77 -23c-31.333 0 -54.666 6.33301 -69.999 19l27 39c15.333 -9.33301 31.333 -14 48 -14
c10 0 20.667 3.16699 32 9.5s19.333 15.833 24 28.5c5.33301 13.333 5.83301 23 1.5 29s-12.166 9 -23.499 9c-8 0 -17 -1.33301 -27 -4c-0.666992 0 -2.33398 -0.333008 -5.00098 -1l-8 17z" />
    <glyph glyph-name="guillemotright" unicode="&#xbb;" horiz-adv-x="326" 
d="M371 383l33 -125l-124 -125h-83l123 125l-32 125h83zM238 383l33 -125l-124 -125h-83l124 125l-33 125h83z" />
    <glyph glyph-name="questiondown" unicode="&#xbf;" horiz-adv-x="334" 
d="M221 371l39 130h111l-39 -130h-111zM306 285l-29.002 -99.999c-8 -25.333 -19.333 -46.5 -34 -63.5s-30.667 -33.5 -48 -49.5s-33.166 -32.833 -47.499 -50.5s-25.166 -39.167 -32.499 -64.5c-8.66699 -27.333 -11.834 -46.166 -9.50098 -56.499
s8.16602 -15.5 17.499 -15.5s18.333 5.16699 27 15.5s17.334 29.166 26.001 56.499l13 45h111l-19 -60c-9.33301 -31.333 -20.166 -57.833 -32.499 -79.5s-26.666 -39.167 -42.999 -52.5s-34.5 -22.833 -54.5 -28.5s-42 -8.5 -66 -8.5c-97.333 0 -129 58 -95 174
c6.66699 23.333 14.167 43.666 22.5 60.999s16.833 32.5 25.5 45.5s17.5 24.167 26.5 33.5s17.833 18 26.5 26l26 23c8.66699 7.33301 16.667 15.5 24 24.5s14.166 18.833 20.499 29.5s11.833 23.667 16.5 39l17 56h111z" />
    <glyph glyph-name="Agrave" unicode="&#xc0;" 
d="M235 256h60l74 338h-1zM3 0l318 714h165l-112 -714h-128l23 126h-86l-50 -126h-130zM554 817h-121l-154 154h120z" />
    <glyph glyph-name="Aacute" unicode="&#xc1;" 
d="M235 256h60l74 338h-1zM3 0l318 714h165l-112 -714h-128l23 126h-86l-50 -126h-130zM441 971h120l-157 -153l-120 -1z" />
    <glyph glyph-name="Acircumflex" unicode="&#xc2;" 
d="M235 256h60l74 338h-1zM3 0l318 714h165l-112 -714h-128l23 126h-86l-50 -126h-130zM250 769l197 280h85l37 -270h-93l-21 159l-111 -169h-94z" />
    <glyph glyph-name="Atilde" unicode="&#xc3;" 
d="M235 256h60l74 338h-1zM3 0l318 714h165l-112 -714h-128l23 126h-86l-50 -126h-130zM556 928l-2.99805 -68c-14.667 -19.333 -30 -34.833 -46 -46.5s-33.333 -17.5 -52 -17.5c-9.33301 0 -18.5 2.16699 -27.5 6.5s-19.167 10.166 -30.5 17.499l-10 7
c-9.33301 7.33301 -17.166 12.5 -23.499 15.5s-12.5 4.5 -18.5 4.5c-10.667 0 -21.334 -4.66699 -32.001 -14s-23.667 -22.666 -39 -39.999l3 67c14 19.333 29 35 45 47s33.333 18 52 18c9.33301 0 18.666 -2.16699 27.999 -6.5s19.666 -10.166 30.999 -17.499l10 -7
c9.33301 -6.66699 17 -11.667 23 -15s12 -5 18 -5c10.667 0 21.5 4.66699 32.5 14s24.167 22.666 39.5 39.999z" />
    <glyph glyph-name="Adieresis" unicode="&#xc4;" 
d="M235 256h60l74 338h-1zM3 0l318 714h165l-112 -714h-128l23 126h-86l-50 -126h-130zM409 968l-39 -130h-110l39 130h110zM607 967l-39 -130h-110l39 130h110z" />
    <glyph glyph-name="Aring" unicode="&#xc5;" 
d="M235 256h60l74 338h-1zM3 0l318 714h165l-112 -714h-128l23 126h-86l-50 -126h-130zM534 809c-8.66699 -30.667 -22.8311 -53.998 -42.498 -69.998s-39.167 -24 -58.5 -24h-17l26 77c11.333 5.33301 18.666 13.666 21.999 24.999l38 128
c2.66699 6.66699 2.83398 12.834 0.500977 18.501s-7.83301 8.5 -16.5 8.5c-8 0 -15.167 -2.83301 -21.5 -8.5s-10.833 -11.834 -13.5 -18.501l-38 -128c-2 -6.66699 -1.66699 -12.834 1 -18.501s7.66699 -8.5 15 -8.5l-25 -75h-22c-19.333 0 -33.833 8 -43.5 24
s-10.167 39.333 -1.5 70l44 144c9.33301 30.667 23.666 54 42.999 70s38.666 24 57.999 24h51c19.333 0 34 -8 44 -24s10.333 -39.333 1 -70z" />
    <glyph glyph-name="AE" unicode="&#xc6;" horiz-adv-x="504" 
d="M242 255h67l101 353h-2zM123 0h-121l361 714h316l-37 -130h-123l-41 -146h117l-36 -130h-117l-52 -178h124l-37 -130h-238l35 125h-91z" />
    <glyph glyph-name="Ccedilla" unicode="&#xc7;" horiz-adv-x="362" 
d="M198 560c16.667 58.667 41.001 101.333 73.001 128s76.333 40 133 40s93 -13.167 109 -39.5s15.333 -69.166 -2 -128.499l-30 -101h-124l31 107c3.33301 10.667 2.5 18.667 -2.5 24s-11.833 8 -20.5 8c-11.333 0 -20.666 -3.5 -27.999 -10.5s-14 -20.167 -20 -39.5
l-115 -382c-5.33301 -19.333 -6.5 -32.5 -3.5 -39.5s10.167 -10.5 21.5 -10.5c7.33301 0 14.666 2 21.999 6l-37 -135c-4 0 -8 -0.166992 -12 -0.5s-8 -0.5 -12 -0.5c-56.667 0 -92.834 13.167 -108.501 39.5s-14.5 69.166 3.5 128.499zM164.001 16.999h39.998l-54 -58
c10.667 2 20.667 3 30 3c18.667 0 31.5 -7.16699 38.5 -21.5s5.83301 -33.5 -3.5 -57.5c-9.33301 -26 -25.666 -46.667 -48.999 -62s-49 -23 -77 -23c-31.333 0 -54.666 6.33301 -69.999 19l27 39c15.333 -9.33301 31.333 -14 48 -14c10 0 20.667 3.16699 32 9.5
s19.333 15.833 24 28.5c5.33301 13.333 5.83301 23 1.5 29s-12.166 9 -23.499 9c-8 0 -17 -1.33301 -27 -4c-0.666992 0 -2.33398 -0.333008 -5.00098 -1l-8 17z" />
    <glyph glyph-name="Egrave" unicode="&#xc8;" horiz-adv-x="314" 
d="M541 817h-121l-154 154h120zM37 0h255l39 130h-131l53 178h125l40 130h-125l43 146h131l40 130h-255z" />
    <glyph glyph-name="Eacute" unicode="&#xc9;" horiz-adv-x="314" 
d="M252 714h255l-40 -130h-131l-43 -146h125l-40 -130h-125l-53 -178h131l-39 -130h-255zM440 971h120l-157 -153l-120 -1z" />
    <glyph glyph-name="Ecircumflex" unicode="&#xca;" horiz-adv-x="314" 
d="M252 714h255l-40 -130h-131l-43 -146h125l-40 -130h-125l-53 -178h131l-39 -130h-255zM227 770l197 280h85l37 -270h-93l-21 159l-111 -169h-94z" />
    <glyph glyph-name="Edieresis" unicode="&#xcb;" horiz-adv-x="314" 
d="M252 714h255l-40 -130h-131l-43 -146h125l-40 -130h-125l-53 -178h131l-39 -130h-255zM394 970l-39 -130h-110l39 130h110zM592 969l-39 -130h-110l39 130h110z" />
    <glyph glyph-name="Igrave" unicode="&#xcc;" horiz-adv-x="205" 
d="M41 0l215 714h124l-215 -714h-124zM487 817h-121l-154 154h120z" />
    <glyph glyph-name="Iacute" unicode="&#xcd;" horiz-adv-x="205" 
d="M41 0l215 714h124l-215 -714h-124zM374 971h120l-157 -153l-120 -1z" />
    <glyph glyph-name="Icircumflex" unicode="&#xce;" horiz-adv-x="205" 
d="M41 0l215 714h124l-215 -714h-124zM168 770l197 280h85l37 -270h-93l-21 159l-111 -169h-94z" />
    <glyph glyph-name="Idieresis" unicode="&#xcf;" horiz-adv-x="205" 
d="M41 0l215 714h124l-215 -714h-124zM328 970l-39 -130h-110l39 130h110zM526 969l-39 -130h-110l39 130h110z" />
    <glyph glyph-name="Eth" unicode="&#xd0;" 
d="M215 585l37.002 129.003h153c27.333 0 50.333 -2.5 69 -7.5s32.667 -13.833 42 -26.5s13.833 -29.834 13.5 -51.501s-5.5 -49.167 -15.5 -82.5l-113 -378c-10 -33.333 -21.667 -60.833 -35 -82.5s-28.5 -38.834 -45.5 -51.501s-36.167 -21.5 -57.5 -26.5
s-45.666 -7.5 -72.999 -7.5l51 131c9.33301 2.66699 17.166 8.5 23.499 17.5s12.833 23.5 19.5 43.5c18 63.333 33.333 115.333 46 156l31.5 100c8.33301 26 14.666 46.333 18.999 61s7.16602 27.667 8.49902 39c2 13.333 0.666992 22.666 -4 27.999s-13.667 8 -27 8z
M62.002 318.003l36 120h196l-36 -120h-196z" />
    <glyph glyph-name="Ntilde" unicode="&#xd1;" horiz-adv-x="456" 
d="M517 714h117l-215 -714h-156l43 499h-1l-150 -499h-118l215 714h158l-46 -503h2zM589 929l-2.99805 -68c-14.667 -19.333 -30 -34.833 -46 -46.5s-33.333 -17.5 -52 -17.5c-9.33301 0 -18.5 2.16699 -27.5 6.5s-19.167 10.166 -30.5 17.499l-10 7
c-9.33301 7.33301 -17.166 12.5 -23.499 15.5s-12.5 4.5 -18.5 4.5c-10.667 0 -21.334 -4.66699 -32.001 -14s-23.667 -22.666 -39 -39.999l3 67c14 19.333 29 35 45 47s33.333 18 52 18c9.33301 0 18.666 -2.16699 27.999 -6.5s19.666 -10.166 30.999 -17.499l10 -7
c9.33301 -6.66699 17 -11.667 23 -15s12 -5 18 -5c10.667 0 21.5 4.66699 32.5 14s24.167 22.666 39.5 39.999z" />
    <glyph glyph-name="Ograve" unicode="&#xd2;" 
d="M200 155c-4.66699 -14 -5.16895 -24 -1.50195 -30s12.167 -9 25.5 -9c12.667 0 22.5 3 29.5 9s12.833 16 17.5 30l122 404c3.33301 14 3.33301 24 0 30s-11.333 9 -24 9c-13.333 0 -23.666 -3 -30.999 -9s-12.666 -16 -15.999 -30zM197.998 560
c10 33.333 21.499 60.833 34.499 82.5s28 38.834 45 51.501s36.167 21.5 57.5 26.5s45.666 7.5 72.999 7.5c26.667 0 49.334 -2.5 68.001 -7.5s32.834 -13.833 42.501 -26.5s14.334 -29.834 14.001 -51.501s-5.5 -49.167 -15.5 -82.5l-122 -406
c-10 -33.333 -21.5 -60.833 -34.5 -82.5s-28 -38.834 -45 -51.501s-36.333 -21.5 -58 -26.5s-45.834 -7.5 -72.501 -7.5c-27.333 0 -50.333 2.5 -69 7.5s-32.667 13.833 -42 26.5s-13.833 29.834 -13.5 51.501s5.5 49.167 15.5 82.5zM552.997 815h-121l-154 154h120z" />
    <glyph glyph-name="Oacute" unicode="&#xd3;" 
d="M200 155c-4.66699 -14 -5.16895 -24 -1.50195 -30s12.167 -9 25.5 -9c12.667 0 22.5 3 29.5 9s12.833 16 17.5 30l122 404c3.33301 14 3.33301 24 0 30s-11.333 9 -24 9c-13.333 0 -23.666 -3 -30.999 -9s-12.666 -16 -15.999 -30zM197.998 560
c10 33.333 21.499 60.833 34.499 82.5s28 38.834 45 51.501s36.167 21.5 57.5 26.5s45.666 7.5 72.999 7.5c26.667 0 49.334 -2.5 68.001 -7.5s32.834 -13.833 42.501 -26.5s14.334 -29.834 14.001 -51.501s-5.5 -49.167 -15.5 -82.5l-122 -406
c-10 -33.333 -21.5 -60.833 -34.5 -82.5s-28 -38.834 -45 -51.501s-36.333 -21.5 -58 -26.5s-45.834 -7.5 -72.501 -7.5c-27.333 0 -50.333 2.5 -69 7.5s-32.667 13.833 -42 26.5s-13.833 29.834 -13.5 51.501s5.5 49.167 15.5 82.5zM462.997 971h120l-157 -153l-120 -1z
" />
    <glyph glyph-name="Ocircumflex" unicode="&#xd4;" 
d="M200 155c-4.66699 -14 -5.16895 -24 -1.50195 -30s12.167 -9 25.5 -9c12.667 0 22.5 3 29.5 9s12.833 16 17.5 30l122 404c3.33301 14 3.33301 24 0 30s-11.333 9 -24 9c-13.333 0 -23.666 -3 -30.999 -9s-12.666 -16 -15.999 -30zM197.998 560
c10 33.333 21.499 60.833 34.499 82.5s28 38.834 45 51.501s36.167 21.5 57.5 26.5s45.666 7.5 72.999 7.5c26.667 0 49.334 -2.5 68.001 -7.5s32.834 -13.833 42.501 -26.5s14.334 -29.834 14.001 -51.501s-5.5 -49.167 -15.5 -82.5l-122 -406
c-10 -33.333 -21.5 -60.833 -34.5 -82.5s-28 -38.834 -45 -51.501s-36.333 -21.5 -58 -26.5s-45.834 -7.5 -72.501 -7.5c-27.333 0 -50.333 2.5 -69 7.5s-32.667 13.833 -42 26.5s-13.833 29.834 -13.5 51.501s5.5 49.167 15.5 82.5zM249.997 770l197 280h85l37 -270h-93
l-21 159l-111 -169h-94z" />
    <glyph glyph-name="Otilde" unicode="&#xd5;" 
d="M200 155c-4.66699 -14 -5.16895 -24 -1.50195 -30s12.167 -9 25.5 -9c12.667 0 22.5 3 29.5 9s12.833 16 17.5 30l122 404c3.33301 14 3.33301 24 0 30s-11.333 9 -24 9c-13.333 0 -23.666 -3 -30.999 -9s-12.666 -16 -15.999 -30zM197.998 560
c10 33.333 21.499 60.833 34.499 82.5s28 38.834 45 51.501s36.167 21.5 57.5 26.5s45.666 7.5 72.999 7.5c26.667 0 49.334 -2.5 68.001 -7.5s32.834 -13.833 42.501 -26.5s14.334 -29.834 14.001 -51.501s-5.5 -49.167 -15.5 -82.5l-122 -406
c-10 -33.333 -21.5 -60.833 -34.5 -82.5s-28 -38.834 -45 -51.501s-36.333 -21.5 -58 -26.5s-45.834 -7.5 -72.501 -7.5c-27.333 0 -50.333 2.5 -69 7.5s-32.667 13.833 -42 26.5s-13.833 29.834 -13.5 51.501s5.5 49.167 15.5 82.5zM556.997 929l-2.99805 -68
c-14.667 -19.333 -30 -34.833 -46 -46.5s-33.333 -17.5 -52 -17.5c-9.33301 0 -18.5 2.16699 -27.5 6.5s-19.167 10.166 -30.5 17.499l-10 7c-9.33301 7.33301 -17.166 12.5 -23.499 15.5s-12.5 4.5 -18.5 4.5c-10.667 0 -21.334 -4.66699 -32.001 -14
s-23.667 -22.666 -39 -39.999l3 67c14 19.333 29 35 45 47s33.333 18 52 18c9.33301 0 18.666 -2.16699 27.999 -6.5s19.666 -10.166 30.999 -17.499l10 -7c9.33301 -6.66699 17 -11.667 23 -15s12 -5 18 -5c10.667 0 21.5 4.66699 32.5 14s24.167 22.666 39.5 39.999z" />
    <glyph glyph-name="Odieresis" unicode="&#xd6;" 
d="M200 155c-4.66699 -14 -5.16895 -24 -1.50195 -30s12.167 -9 25.5 -9c12.667 0 22.5 3 29.5 9s12.833 16 17.5 30l122 404c3.33301 14 3.33301 24 0 30s-11.333 9 -24 9c-13.333 0 -23.666 -3 -30.999 -9s-12.666 -16 -15.999 -30zM197.998 560
c10 33.333 21.499 60.833 34.499 82.5s28 38.834 45 51.501s36.167 21.5 57.5 26.5s45.666 7.5 72.999 7.5c26.667 0 49.334 -2.5 68.001 -7.5s32.834 -13.833 42.501 -26.5s14.334 -29.834 14.001 -51.501s-5.5 -49.167 -15.5 -82.5l-122 -406
c-10 -33.333 -21.5 -60.833 -34.5 -82.5s-28 -38.834 -45 -51.501s-36.333 -21.5 -58 -26.5s-45.834 -7.5 -72.501 -7.5c-27.333 0 -50.333 2.5 -69 7.5s-32.667 13.833 -42 26.5s-13.833 29.834 -13.5 51.501s5.5 49.167 15.5 82.5zM419.997 969l-39 -130h-110l39 130h110z
M617.997 968l-39 -130h-110l39 130h110z" />
    <glyph glyph-name="multiply" unicode="&#xd7;" horiz-adv-x="480" 
d="M351 79l88 79l35 -82l-88 -76zM94 0l-32 76l212 182l-80 182l88 76l80 -182l212 182l32 -76l-211 -179l31 -77l-87 -77l-33 75z" />
    <glyph glyph-name="Oslash" unicode="&#xd8;" 
d="M238 117c15.333 4 26.333 16.667 33 38l122 404c4.66699 20 1.66699 32.333 -9 37zM200 155c-6.66699 -21.333 -3.66699 -34 9 -38l146 480c-17.333 -4 -28.333 -16.667 -33 -38l-122 -404v0zM424 727c24 -0.666992 44.167 -3.83398 60.5 -9.50098
s28.5 -14.834 36.5 -27.501s11.833 -29.5 11.5 -50.5s-5.5 -47.5 -15.5 -79.5l-122 -406c-10 -32 -21.167 -58.667 -33.5 -80s-26.5 -38.333 -42.5 -51s-34 -21.834 -54 -27.501s-42.333 -8.83398 -67 -9.50098l-30 -98h-29l30 99c-24 0.666992 -44.333 3.83398 -61 9.50098
s-29 14.834 -37 27.501s-11.667 29.5 -11 50.5s6 47.5 16 79.5l122 406c10 32 21 58.667 33 80s26 38.333 42 51s33.833 21.834 53.5 27.501s42.167 8.83398 67.5 9.50098l25 80h30z" />
    <glyph glyph-name="Ugrave" unicode="&#xd9;" 
d="M395 154c-10 -33.333 -21.5 -60.833 -34.5 -82.5s-28 -38.834 -45 -51.501s-36.333 -21.5 -58 -26.5s-45.834 -7.5 -72.501 -7.5c-27.333 0 -50.333 2.5 -69 7.5s-32.667 13.833 -42 26.5s-13.833 29.834 -13.5 51.501s5.5 49.167 15.5 82.5l168 560h124l-162 -538
c-7.33301 -25.333 -9.5 -41.666 -6.5 -48.999s11.167 -11 24.5 -11c12.667 0 22.834 3.66699 30.501 11s15.167 23.666 22.5 48.999l162 538h124zM538 817h-121l-154 154h120z" />
    <glyph glyph-name="Uacute" unicode="&#xda;" 
d="M395 154c-10 -33.333 -21.5 -60.833 -34.5 -82.5s-28 -38.834 -45 -51.501s-36.333 -21.5 -58 -26.5s-45.834 -7.5 -72.501 -7.5c-27.333 0 -50.333 2.5 -69 7.5s-32.667 13.833 -42 26.5s-13.833 29.834 -13.5 51.501s5.5 49.167 15.5 82.5l168 560h124l-162 -538
c-7.33301 -25.333 -9.5 -41.666 -6.5 -48.999s11.167 -11 24.5 -11c12.667 0 22.834 3.66699 30.501 11s15.167 23.666 22.5 48.999l162 538h124zM457 970h120l-157 -153l-120 -1z" />
    <glyph glyph-name="Ucircumflex" unicode="&#xdb;" 
d="M395 154c-10 -33.333 -21.5 -60.833 -34.5 -82.5s-28 -38.834 -45 -51.501s-36.333 -21.5 -58 -26.5s-45.834 -7.5 -72.501 -7.5c-27.333 0 -50.333 2.5 -69 7.5s-32.667 13.833 -42 26.5s-13.833 29.834 -13.5 51.501s5.5 49.167 15.5 82.5l168 560h124l-162 -538
c-7.33301 -25.333 -9.5 -41.666 -6.5 -48.999s11.167 -11 24.5 -11c12.667 0 22.834 3.66699 30.501 11s15.167 23.666 22.5 48.999l162 538h124zM252 770l197 280h85l37 -270h-93l-21 159l-111 -169h-94z" />
    <glyph glyph-name="Udieresis" unicode="&#xdc;" 
d="M395 154c-10 -33.333 -21.5 -60.833 -34.5 -82.5s-28 -38.834 -45 -51.501s-36.333 -21.5 -58 -26.5s-45.834 -7.5 -72.501 -7.5c-27.333 0 -50.333 2.5 -69 7.5s-32.667 13.833 -42 26.5s-13.833 29.834 -13.5 51.501s5.5 49.167 15.5 82.5l168 560h124l-162 -538
c-7.33301 -25.333 -9.5 -41.666 -6.5 -48.999s11.167 -11 24.5 -11c12.667 0 22.834 3.66699 30.501 11s15.167 23.666 22.5 48.999l162 538h124zM417 973l-39 -130h-110l39 130h110zM615 972l-39 -130h-110l39 130h110z" />
    <glyph glyph-name="Yacute" unicode="&#xdd;" horiz-adv-x="394" 
d="M333 457h2l140 257h130l-265 -442l-82 -272h-124l82 272l2 442h130zM470 971h120l-157 -153l-120 -1z" />
    <glyph glyph-name="Thorn" unicode="&#xde;" horiz-adv-x="341" 
d="M186 114l-34 -114h-117l208 714h117l-40 -138h27c28.667 0 51.834 -2.5 69.501 -7.5s30.5 -13.667 38.5 -26s11.5 -29 10.5 -50s-6.16699 -47.5 -15.5 -79.5l-40 -136c-9.33301 -32 -19.333 -58.5 -30 -79.5s-23.667 -37.667 -39 -50s-33.333 -21 -54 -26
s-45.334 -7.5 -74.001 -7.5h-27zM282 446l-58.999 -202h18c17.333 0 30.666 6 39.999 18c8.66699 12 19.667 39.667 33 83c12 43.333 17 71 15 83s-11.667 18 -29 18h-18z" />
    <glyph glyph-name="germandbls" unicode="&#xdf;" horiz-adv-x="341" 
d="M29 0l139 478h113l-139 -478h-113zM194 568c6.66699 22.667 16.0039 43.833 28.0039 63.5s26 36.667 42 51s34.167 25.5 54.5 33.5s42.5 12 66.5 12c22 0 40.333 -6.16699 55 -18.5s25.667 -28.166 33 -47.499s11 -41.333 11 -66s-3.33301 -49 -10 -73
c-5.33301 -18.667 -12.833 -39.334 -22.5 -62.001s-20.834 -44.167 -33.501 -64.5s-26.167 -37.833 -40.5 -52.5s-28.833 -23 -43.5 -25l-1 -2c25.333 0 43.166 -9.33301 53.499 -28s10.166 -46 -0.500977 -82l-64 -221c-12 -40.667 -28.167 -72.667 -48.5 -96
s-42.833 -35 -67.5 -35h-66l36 126h14c11.333 0 20 11.333 26 34l60 204c6.66699 22.667 4.33398 34 -6.99902 34h-13l35 122c6.66699 0 14.5 5 23.5 15s17.833 21.833 26.5 35.5s16.667 27.5 24 41.5s12.666 25 15.999 33c10 24.667 15.333 44.5 16 59.5
s-1.33301 26.333 -6 34s-10.5 12.667 -17.5 15s-12.833 3.5 -17.5 3.5c-24.667 0 -42.334 -20 -53.001 -60l-5 -15h-113z" />
    <glyph glyph-name="agrave" unicode="&#xe0;" 
d="M554 817h-121l-154 154h120zM133 0l50 126h86l-23 -126h128l112 714h-165l-318 -714h130zM368 594h1l-74 -338h-60z" />
    <glyph glyph-name="aacute" unicode="&#xe1;" 
d="M235 256h60l74 338h-1zM3 0l318 714h165l-112 -714h-128l23 126h-86l-50 -126h-130zM441 971h120l-157 -153l-120 -1z" />
    <glyph glyph-name="acircumflex" unicode="&#xe2;" 
d="M235 256h60l74 338h-1zM3 0l318 714h165l-112 -714h-128l23 126h-86l-50 -126h-130zM250 769l197 280h85l37 -270h-93l-21 159l-111 -169h-94z" />
    <glyph glyph-name="atilde" unicode="&#xe3;" 
d="M235 256h60l74 338h-1zM3 0l318 714h165l-112 -714h-128l23 126h-86l-50 -126h-130zM556 928l-2.99805 -68c-14.667 -19.333 -30 -34.833 -46 -46.5s-33.333 -17.5 -52 -17.5c-9.33301 0 -18.5 2.16699 -27.5 6.5s-19.167 10.166 -30.5 17.499l-10 7
c-9.33301 7.33301 -17.166 12.5 -23.499 15.5s-12.5 4.5 -18.5 4.5c-10.667 0 -21.334 -4.66699 -32.001 -14s-23.667 -22.666 -39 -39.999l3 67c14 19.333 29 35 45 47s33.333 18 52 18c9.33301 0 18.666 -2.16699 27.999 -6.5s19.666 -10.166 30.999 -17.499l10 -7
c9.33301 -6.66699 17 -11.667 23 -15s12 -5 18 -5c10.667 0 21.5 4.66699 32.5 14s24.167 22.666 39.5 39.999z" />
    <glyph glyph-name="adieresis" unicode="&#xe4;" 
d="M235 256h60l74 338h-1zM3 0l318 714h165l-112 -714h-128l23 126h-86l-50 -126h-130zM409 968l-39 -130h-110l39 130h110zM607 967l-39 -130h-110l39 130h110z" />
    <glyph glyph-name="aring" unicode="&#xe5;" 
d="M235 256h60l74 338h-1zM3 0l318 714h165l-112 -714h-128l23 126h-86l-50 -126h-130zM534 809c-8.66699 -30.667 -22.8311 -53.998 -42.498 -69.998s-39.167 -24 -58.5 -24h-17l26 77c11.333 5.33301 18.666 13.666 21.999 24.999l38 128
c2.66699 6.66699 2.83398 12.834 0.500977 18.501s-7.83301 8.5 -16.5 8.5c-8 0 -15.167 -2.83301 -21.5 -8.5s-10.833 -11.834 -13.5 -18.501l-38 -128c-2 -6.66699 -1.66699 -12.834 1 -18.501s7.66699 -8.5 15 -8.5l-25 -75h-22c-19.333 0 -33.833 8 -43.5 24
s-10.167 39.333 -1.5 70l44 144c9.33301 30.667 23.666 54 42.999 70s38.666 24 57.999 24h51c19.333 0 34 -8 44 -24s10.333 -39.333 1 -70z" />
    <glyph glyph-name="ae" unicode="&#xe6;" horiz-adv-x="504" 
d="M242 255h67l101 353h-2zM123 0h-121l361 714h316l-37 -130h-123l-41 -146h117l-36 -130h-117l-52 -178h124l-37 -130h-238l35 125h-91z" />
    <glyph glyph-name="ccedilla" unicode="&#xe7;" horiz-adv-x="362" 
d="M198 560c16.667 58.667 41.001 101.333 73.001 128s76.333 40 133 40s93 -13.167 109 -39.5s15.333 -69.166 -2 -128.499l-30 -101h-124l31 107c3.33301 10.667 2.5 18.667 -2.5 24s-11.833 8 -20.5 8c-11.333 0 -20.666 -3.5 -27.999 -10.5s-14 -20.167 -20 -39.5
l-115 -382c-5.33301 -19.333 -6.5 -32.5 -3.5 -39.5s10.167 -10.5 21.5 -10.5c7.33301 0 14.666 2 21.999 6l-37 -135c-4 0 -8 -0.166992 -12 -0.5s-8 -0.5 -12 -0.5c-56.667 0 -92.834 13.167 -108.501 39.5s-14.5 69.166 3.5 128.499zM164.001 16.999h39.998l-54 -58
c10.667 2 20.667 3 30 3c18.667 0 31.5 -7.16699 38.5 -21.5s5.83301 -33.5 -3.5 -57.5c-9.33301 -26 -25.666 -46.667 -48.999 -62s-49 -23 -77 -23c-31.333 0 -54.666 6.33301 -69.999 19l27 39c15.333 -9.33301 31.333 -14 48 -14c10 0 20.667 3.16699 32 9.5
s19.333 15.833 24 28.5c5.33301 13.333 5.83301 23 1.5 29s-12.166 9 -23.499 9c-8 0 -17 -1.33301 -27 -4c-0.666992 0 -2.33398 -0.333008 -5.00098 -1l-8 17z" />
    <glyph glyph-name="egrave" unicode="&#xe8;" horiz-adv-x="314" 
d="M252 714h255l-40 -130h-131l-43 -146h125l-40 -130h-125l-53 -178h131l-39 -130h-255zM541 817h-121l-154 154h120z" />
    <glyph glyph-name="eacute" unicode="&#xe9;" horiz-adv-x="314" 
d="M252 714h255l-40 -130h-131l-43 -146h125l-40 -130h-125l-53 -178h131l-39 -130h-255zM440 971h120l-157 -153l-120 -1z" />
    <glyph glyph-name="ecircumflex" unicode="&#xea;" horiz-adv-x="314" 
d="M252 714h255l-40 -130h-131l-43 -146h125l-40 -130h-125l-53 -178h131l-39 -130h-255zM227 770l197 280h85l37 -270h-93l-21 159l-111 -169h-94z" />
    <glyph glyph-name="edieresis" unicode="&#xeb;" horiz-adv-x="314" 
d="M252 714h255l-40 -130h-131l-43 -146h125l-40 -130h-125l-53 -178h131l-39 -130h-255zM394 970l-39 -130h-110l39 130h110zM592 969l-39 -130h-110l39 130h110z" />
    <glyph glyph-name="igrave" unicode="&#xec;" horiz-adv-x="205" 
d="M487 817h-121l-154 154h120zM165 0l215 714h-124l-215 -714h124z" />
    <glyph glyph-name="iacute" unicode="&#xed;" horiz-adv-x="205" 
d="M41 0l215 714h124l-215 -714h-124zM374 971h120l-157 -153l-120 -1z" />
    <glyph glyph-name="icircumflex" unicode="&#xee;" horiz-adv-x="205" 
d="M41 0l215 714h124l-215 -714h-124zM168 770l197 280h85l37 -270h-93l-21 159l-111 -169h-94z" />
    <glyph glyph-name="idieresis" unicode="&#xef;" horiz-adv-x="205" 
d="M41 0l215 714h124l-215 -714h-124zM328 970l-39 -130h-110l39 130h110zM526 969l-39 -130h-110l39 130h110z" />
    <glyph glyph-name="eth" unicode="&#xf0;" 
d="M215 585l37.002 129.003h153c27.333 0 50.333 -2.5 69 -7.5s32.667 -13.833 42 -26.5s13.833 -29.834 13.5 -51.501s-5.5 -49.167 -15.5 -82.5l-113 -378c-10 -33.333 -21.667 -60.833 -35 -82.5s-28.5 -38.834 -45.5 -51.501s-36.167 -21.5 -57.5 -26.5
s-45.666 -7.5 -72.999 -7.5l51 131c9.33301 2.66699 17.166 8.5 23.499 17.5s12.833 23.5 19.5 43.5c18 63.333 33.333 115.333 46 156l31.5 100c8.33301 26 14.666 46.333 18.999 61s7.16602 27.667 8.49902 39c2 13.333 0.666992 22.666 -4 27.999s-13.667 8 -27 8z
M62.002 318.003l36 120h196l-36 -120h-196z" />
    <glyph glyph-name="ntilde" unicode="&#xf1;" horiz-adv-x="456" 
d="M517 714h117l-215 -714h-156l43 499h-1l-150 -499h-118l215 714h158l-46 -503h2zM589 929l-2.99805 -68c-14.667 -19.333 -30 -34.833 -46 -46.5s-33.333 -17.5 -52 -17.5c-9.33301 0 -18.5 2.16699 -27.5 6.5s-19.167 10.166 -30.5 17.499l-10 7
c-9.33301 7.33301 -17.166 12.5 -23.499 15.5s-12.5 4.5 -18.5 4.5c-10.667 0 -21.334 -4.66699 -32.001 -14s-23.667 -22.666 -39 -39.999l3 67c14 19.333 29 35 45 47s33.333 18 52 18c9.33301 0 18.666 -2.16699 27.999 -6.5s19.666 -10.166 30.999 -17.499l10 -7
c9.33301 -6.66699 17 -11.667 23 -15s12 -5 18 -5c10.667 0 21.5 4.66699 32.5 14s24.167 22.666 39.5 39.999z" />
    <glyph glyph-name="ograve" unicode="&#xf2;" 
d="M553 815h-121l-154 154h120zM76 154c-10 -33.333 -15.166 -60.833 -15.499 -82.5s4.16699 -38.834 13.5 -51.501s23.333 -21.5 42 -26.5s41.667 -7.5 69 -7.5c26.667 0 50.834 2.5 72.501 7.5s41 13.833 58 26.5s32 29.834 45 51.501s24.5 49.167 34.5 82.5l122 406
c10 33.333 15.167 60.833 15.5 82.5s-4.33398 38.834 -14.001 51.501s-23.834 21.5 -42.501 26.5s-41.334 7.5 -68.001 7.5c-27.333 0 -51.666 -2.5 -72.999 -7.5s-40.5 -13.833 -57.5 -26.5s-32 -29.834 -45 -51.501s-24.5 -49.167 -34.5 -82.5zM322.001 559
c3.33301 14 8.66797 24 16.001 30s17.666 9 30.999 9c12.667 0 20.667 -3 24 -9s3.33301 -16 0 -30l-122 -404c-4.66699 -14 -10.5 -24 -17.5 -30s-16.833 -9 -29.5 -9c-13.333 0 -21.833 3 -25.5 9s-3.16699 16 1.5 30z" />
    <glyph glyph-name="oacute" unicode="&#xf3;" 
d="M200 155c-4.66699 -14 -5.16895 -24 -1.50195 -30s12.167 -9 25.5 -9c12.667 0 22.5 3 29.5 9s12.833 16 17.5 30l122 404c3.33301 14 3.33301 24 0 30s-11.333 9 -24 9c-13.333 0 -23.666 -3 -30.999 -9s-12.666 -16 -15.999 -30zM197.998 560
c10 33.333 21.499 60.833 34.499 82.5s28 38.834 45 51.501s36.167 21.5 57.5 26.5s45.666 7.5 72.999 7.5c26.667 0 49.334 -2.5 68.001 -7.5s32.834 -13.833 42.501 -26.5s14.334 -29.834 14.001 -51.501s-5.5 -49.167 -15.5 -82.5l-122 -406
c-10 -33.333 -21.5 -60.833 -34.5 -82.5s-28 -38.834 -45 -51.501s-36.333 -21.5 -58 -26.5s-45.834 -7.5 -72.501 -7.5c-27.333 0 -50.333 2.5 -69 7.5s-32.667 13.833 -42 26.5s-13.833 29.834 -13.5 51.501s5.5 49.167 15.5 82.5zM462.997 971h120l-157 -153l-120 -1z
" />
    <glyph glyph-name="ocircumflex" unicode="&#xf4;" 
d="M200 155c-4.66699 -14 -5.16895 -24 -1.50195 -30s12.167 -9 25.5 -9c12.667 0 22.5 3 29.5 9s12.833 16 17.5 30l122 404c3.33301 14 3.33301 24 0 30s-11.333 9 -24 9c-13.333 0 -23.666 -3 -30.999 -9s-12.666 -16 -15.999 -30zM197.998 560
c10 33.333 21.499 60.833 34.499 82.5s28 38.834 45 51.501s36.167 21.5 57.5 26.5s45.666 7.5 72.999 7.5c26.667 0 49.334 -2.5 68.001 -7.5s32.834 -13.833 42.501 -26.5s14.334 -29.834 14.001 -51.501s-5.5 -49.167 -15.5 -82.5l-122 -406
c-10 -33.333 -21.5 -60.833 -34.5 -82.5s-28 -38.834 -45 -51.501s-36.333 -21.5 -58 -26.5s-45.834 -7.5 -72.501 -7.5c-27.333 0 -50.333 2.5 -69 7.5s-32.667 13.833 -42 26.5s-13.833 29.834 -13.5 51.501s5.5 49.167 15.5 82.5zM249.997 770l197 280h85l37 -270h-93
l-21 159l-111 -169h-94z" />
    <glyph glyph-name="otilde" unicode="&#xf5;" 
d="M200 155c-4.66699 -14 -5.16895 -24 -1.50195 -30s12.167 -9 25.5 -9c12.667 0 22.5 3 29.5 9s12.833 16 17.5 30l122 404c3.33301 14 3.33301 24 0 30s-11.333 9 -24 9c-13.333 0 -23.666 -3 -30.999 -9s-12.666 -16 -15.999 -30zM197.998 560
c10 33.333 21.499 60.833 34.499 82.5s28 38.834 45 51.501s36.167 21.5 57.5 26.5s45.666 7.5 72.999 7.5c26.667 0 49.334 -2.5 68.001 -7.5s32.834 -13.833 42.501 -26.5s14.334 -29.834 14.001 -51.501s-5.5 -49.167 -15.5 -82.5l-122 -406
c-10 -33.333 -21.5 -60.833 -34.5 -82.5s-28 -38.834 -45 -51.501s-36.333 -21.5 -58 -26.5s-45.834 -7.5 -72.501 -7.5c-27.333 0 -50.333 2.5 -69 7.5s-32.667 13.833 -42 26.5s-13.833 29.834 -13.5 51.501s5.5 49.167 15.5 82.5zM556.997 929l-2.99805 -68
c-14.667 -19.333 -30 -34.833 -46 -46.5s-33.333 -17.5 -52 -17.5c-9.33301 0 -18.5 2.16699 -27.5 6.5s-19.167 10.166 -30.5 17.499l-10 7c-9.33301 7.33301 -17.166 12.5 -23.499 15.5s-12.5 4.5 -18.5 4.5c-10.667 0 -21.334 -4.66699 -32.001 -14
s-23.667 -22.666 -39 -39.999l3 67c14 19.333 29 35 45 47s33.333 18 52 18c9.33301 0 18.666 -2.16699 27.999 -6.5s19.666 -10.166 30.999 -17.499l10 -7c9.33301 -6.66699 17 -11.667 23 -15s12 -5 18 -5c10.667 0 21.5 4.66699 32.5 14s24.167 22.666 39.5 39.999z" />
    <glyph glyph-name="odieresis" unicode="&#xf6;" 
d="M200 155c-4.66699 -14 -5.16895 -24 -1.50195 -30s12.167 -9 25.5 -9c12.667 0 22.5 3 29.5 9s12.833 16 17.5 30l122 404c3.33301 14 3.33301 24 0 30s-11.333 9 -24 9c-13.333 0 -23.666 -3 -30.999 -9s-12.666 -16 -15.999 -30zM197.998 560
c10 33.333 21.499 60.833 34.499 82.5s28 38.834 45 51.501s36.167 21.5 57.5 26.5s45.666 7.5 72.999 7.5c26.667 0 49.334 -2.5 68.001 -7.5s32.834 -13.833 42.501 -26.5s14.334 -29.834 14.001 -51.501s-5.5 -49.167 -15.5 -82.5l-122 -406
c-10 -33.333 -21.5 -60.833 -34.5 -82.5s-28 -38.834 -45 -51.501s-36.333 -21.5 -58 -26.5s-45.834 -7.5 -72.501 -7.5c-27.333 0 -50.333 2.5 -69 7.5s-32.667 13.833 -42 26.5s-13.833 29.834 -13.5 51.501s5.5 49.167 15.5 82.5zM419.997 969l-39 -130h-110l39 130h110z
M617.997 968l-39 -130h-110l39 130h110z" />
    <glyph glyph-name="divide" unicode="&#xf7;" horiz-adv-x="456" 
d="M117 253l36 120h379l-36 -120h-379zM356 200l-39 -130h-110l39 130h110zM445 558l-39 -130h-110l39 130h110z" />
    <glyph glyph-name="oslash" unicode="&#xf8;" 
d="M238 117c15.333 4 26.333 16.667 33 38l122 404c4.66699 20 1.66699 32.333 -9 37zM200 155c-6.66699 -21.333 -3.66699 -34 9 -38l146 480c-17.333 -4 -28.333 -16.667 -33 -38l-122 -404v0zM424 727c24 -0.666992 44.167 -3.83398 60.5 -9.50098
s28.5 -14.834 36.5 -27.501s11.833 -29.5 11.5 -50.5s-5.5 -47.5 -15.5 -79.5l-122 -406c-10 -32 -21.167 -58.667 -33.5 -80s-26.5 -38.333 -42.5 -51s-34 -21.834 -54 -27.501s-42.333 -8.83398 -67 -9.50098l-30 -98h-29l30 99c-24 0.666992 -44.333 3.83398 -61 9.50098
s-29 14.834 -37 27.501s-11.667 29.5 -11 50.5s6 47.5 16 79.5l122 406c10 32 21 58.667 33 80s26 38.333 42 51s33.833 21.834 53.5 27.501s42.167 8.83398 67.5 9.50098l25 80h30z" />
    <glyph glyph-name="ugrave" unicode="&#xf9;" 
d="M538 817h-121l-154 154h120zM563 714h-124l-162 -538c-7.33301 -25.333 -14.833 -41.666 -22.5 -48.999s-17.834 -11 -30.501 -11c-13.333 0 -21.5 3.66699 -24.5 11s-0.833008 23.666 6.5 48.999l162 538h-124l-168 -560c-10 -33.333 -15.167 -60.833 -15.5 -82.5
s4.16699 -38.834 13.5 -51.501s23.333 -21.5 42 -26.5s41.667 -7.5 69 -7.5c26.667 0 50.834 2.5 72.501 7.5s41 13.833 58 26.5s32 29.834 45 51.501s24.5 49.167 34.5 82.5z" />
    <glyph glyph-name="uacute" unicode="&#xfa;" 
d="M395 154c-10 -33.333 -21.5 -60.833 -34.5 -82.5s-28 -38.834 -45 -51.501s-36.333 -21.5 -58 -26.5s-45.834 -7.5 -72.501 -7.5c-27.333 0 -50.333 2.5 -69 7.5s-32.667 13.833 -42 26.5s-13.833 29.834 -13.5 51.501s5.5 49.167 15.5 82.5l168 560h124l-162 -538
c-7.33301 -25.333 -9.5 -41.666 -6.5 -48.999s11.167 -11 24.5 -11c12.667 0 22.834 3.66699 30.501 11s15.167 23.666 22.5 48.999l162 538h124zM457 970h120l-157 -153l-120 -1z" />
    <glyph glyph-name="ucircumflex" unicode="&#xfb;" 
d="M395 154c-10 -33.333 -21.5 -60.833 -34.5 -82.5s-28 -38.834 -45 -51.501s-36.333 -21.5 -58 -26.5s-45.834 -7.5 -72.501 -7.5c-27.333 0 -50.333 2.5 -69 7.5s-32.667 13.833 -42 26.5s-13.833 29.834 -13.5 51.501s5.5 49.167 15.5 82.5l168 560h124l-162 -538
c-7.33301 -25.333 -9.5 -41.666 -6.5 -48.999s11.167 -11 24.5 -11c12.667 0 22.834 3.66699 30.501 11s15.167 23.666 22.5 48.999l162 538h124zM252 770l197 280h85l37 -270h-93l-21 159l-111 -169h-94z" />
    <glyph glyph-name="udieresis" unicode="&#xfc;" 
d="M395 154c-10 -33.333 -21.5 -60.833 -34.5 -82.5s-28 -38.834 -45 -51.501s-36.333 -21.5 -58 -26.5s-45.834 -7.5 -72.501 -7.5c-27.333 0 -50.333 2.5 -69 7.5s-32.667 13.833 -42 26.5s-13.833 29.834 -13.5 51.501s5.5 49.167 15.5 82.5l168 560h124l-162 -538
c-7.33301 -25.333 -9.5 -41.666 -6.5 -48.999s11.167 -11 24.5 -11c12.667 0 22.834 3.66699 30.501 11s15.167 23.666 22.5 48.999l162 538h124zM417 973l-39 -130h-110l39 130h110zM615 972l-39 -130h-110l39 130h110z" />
    <glyph glyph-name="yacute" unicode="&#xfd;" horiz-adv-x="394" 
d="M333 457h2l140 257h130l-265 -442l-82 -272h-124l82 272l2 442h130zM470 971h120l-157 -153l-120 -1z" />
    <glyph glyph-name="thorn" unicode="&#xfe;" horiz-adv-x="341" 
d="M186 114l-34 -114h-117l208 714h117l-40 -138h27c28.667 0 51.834 -2.5 69.501 -7.5s30.5 -13.667 38.5 -26s11.5 -29 10.5 -50s-6.16699 -47.5 -15.5 -79.5l-40 -136c-9.33301 -32 -19.333 -58.5 -30 -79.5s-23.667 -37.667 -39 -50s-33.333 -21 -54 -26
s-45.334 -7.5 -74.001 -7.5h-27zM282 446l-58.999 -202h18c17.333 0 30.666 6 39.999 18c8.66699 12 19.667 39.667 33 83c12 43.333 17 71 15 83s-11.667 18 -29 18h-18z" />
    <glyph glyph-name="ydieresis" unicode="&#xff;" horiz-adv-x="394" 
d="M333 457h2l140 257h130l-265 -442l-82 -272h-124l82 272l2 442h130zM426 971l-39 -130h-110l39 130h110zM624 970l-39 -130h-110l39 130h110z" />
    <glyph glyph-name="OE" unicode="&#x152;" horiz-adv-x="504" 
d="M200 155c-4.66699 -14 -5.16895 -24 -1.50195 -30s12.167 -9 25.5 -9c12.667 0 22.5 3 29.5 9s12.833 16 17.5 30l122 404c3.33301 14 3.33301 24 0 30s-11.333 9 -24 9c-13.333 0 -23.666 -3 -30.999 -9s-12.666 -16 -15.999 -30l-122 -404v0zM698.998 728
l-39.999 -130.003h-131l-47 -159h125l-40 -130h-125l-53 -178h131l-39 -130h-199c-13.333 -5.33301 -28 -9.16602 -44 -11.499s-33.333 -3.5 -52 -3.5c-27.333 0 -50.333 2.5 -69 7.5s-32.667 13.833 -42 26.5s-13.833 29.834 -13.5 51.501s5.5 49.167 15.5 82.5l122 406
c10 33.333 21.5 60.833 34.5 82.5s28 38.834 45 51.501s36.167 21.5 57.5 26.5s45.666 7.5 72.999 7.5h291z" />
    <glyph glyph-name="oe" unicode="&#x153;" horiz-adv-x="504" 
d="M200 155c-4.66699 -14 -5.16895 -24 -1.50195 -30s12.167 -9 25.5 -9c12.667 0 22.5 3 29.5 9s12.833 16 17.5 30l122 404c3.33301 14 3.33301 24 0 30s-11.333 9 -24 9c-13.333 0 -23.666 -3 -30.999 -9s-12.666 -16 -15.999 -30l-122 -404v0zM698.998 728
l-39.999 -130.003h-131l-47 -159h125l-40 -130h-125l-53 -178h131l-39 -130h-199c-13.333 -5.33301 -28 -9.16602 -44 -11.499s-33.333 -3.5 -52 -3.5c-27.333 0 -50.333 2.5 -69 7.5s-32.667 13.833 -42 26.5s-13.833 29.834 -13.5 51.501s5.5 49.167 15.5 82.5l122 406
c10 33.333 21.5 60.833 34.5 82.5s28 38.834 45 51.501s36.167 21.5 57.5 26.5s45.666 7.5 72.999 7.5h291z" />
    <glyph glyph-name="Scaron" unicode="&#x160;" horiz-adv-x="346" 
d="M359 499l13.0049 40.001c11.333 39.333 5 59 -19 59c-12.667 0 -23 -4.5 -31 -13.5s-15 -24.167 -21 -45.5c-6.66699 -20.667 -7.5 -38.5 -2.5 -53.5s12.667 -29.333 23 -43s21.666 -27.667 33.999 -42s22.833 -31.333 31.5 -51s13.667 -43 15 -70
s-3.66699 -59.833 -15 -98.5c-11.333 -37.333 -23.333 -68.5 -36 -93.5s-27.5 -45 -44.5 -60s-36.667 -25.667 -59 -32s-48.5 -9.5 -78.5 -9.5h-18l46 131c17.333 -2.66699 30.666 0.5 39.999 9.5s17.666 25.167 24.999 48.5c7.33301 24.667 8.66602 45.5 3.99902 62.5
s-12.167 32.5 -22.5 46.5s-21.833 28.167 -34.5 42.5s-23.334 31.166 -32.001 50.499s-13.667 42.333 -15 69s4 60 16 100c10 32 21.167 59.5 33.5 82.5s26.833 41.833 43.5 56.5s36.167 25.5 58.5 32.5s48.5 10.5 78.5 10.5c52.667 0 88 -13 106 -39
s17.667 -70.667 -1 -134l-17 -56h-121zM608.005 1050l-199 -337h-85l-35 327h93l15 -190l117 200h94z" />
    <glyph glyph-name="scaron" unicode="&#x161;" horiz-adv-x="346" 
d="M359 499l13.0049 40.001c11.333 39.333 5 59 -19 59c-12.667 0 -23 -4.5 -31 -13.5s-15 -24.167 -21 -45.5c-6.66699 -20.667 -7.5 -38.5 -2.5 -53.5s12.667 -29.333 23 -43s21.666 -27.667 33.999 -42s22.833 -31.333 31.5 -51s13.667 -43 15 -70
s-3.66699 -59.833 -15 -98.5c-11.333 -37.333 -23.333 -68.5 -36 -93.5s-27.5 -45 -44.5 -60s-36.667 -25.667 -59 -32s-48.5 -9.5 -78.5 -9.5h-18l46 131c17.333 -2.66699 30.666 0.5 39.999 9.5s17.666 25.167 24.999 48.5c7.33301 24.667 8.66602 45.5 3.99902 62.5
s-12.167 32.5 -22.5 46.5s-21.833 28.167 -34.5 42.5s-23.334 31.166 -32.001 50.499s-13.667 42.333 -15 69s4 60 16 100c10 32 21.167 59.5 33.5 82.5s26.833 41.833 43.5 56.5s36.167 25.5 58.5 32.5s48.5 10.5 78.5 10.5c52.667 0 88 -13 106 -39
s17.667 -70.667 -1 -134l-17 -56h-121zM608.005 1050l-199 -337h-85l-35 327h93l15 -190l117 200h94z" />
    <glyph glyph-name="Ydieresis" unicode="&#x178;" horiz-adv-x="394" 
d="M333 457h2l140 257h130l-265 -442l-82 -272h-124l82 272l2 442h130zM426 971l-39 -130h-110l39 130h110zM624 970l-39 -130h-110l39 130h110z" />
    <glyph glyph-name="florin" unicode="&#x192;" horiz-adv-x="341" 
d="M-12 -67h26.002c13.333 0 23.666 3.83301 30.999 11.5s15.666 23.167 24.999 46.5l99 224h104l-110 -260c-16.667 -40 -38.334 -72 -65.001 -96c-29.333 -25.333 -58.666 -38 -87.999 -38h-64zM134.002 313l27.001 73h60l73 192c7.33301 20 16.666 38.333 27.999 55
s23.666 31 36.999 43s27.5 21.333 42.5 28s30.167 10 45.5 10h67l-44 -112h-26c-13.333 0 -23.666 -4 -30.999 -12s-15.333 -23.333 -24 -46l-60 -158h59l-27 -73h-227z" />
    <glyph glyph-name="circumflex" unicode="&#x2c6;" horiz-adv-x="510" 
d="M222 770l197 280h85l37 -270h-93l-21 159l-111 -169h-94z" />
    <glyph glyph-name="tilde" unicode="&#x2dc;" horiz-adv-x="322" 
d="M344 929l-2.99805 -68c-14.667 -19.333 -30 -34.833 -46 -46.5s-33.333 -17.5 -52 -17.5c-9.33301 0 -18.5 2.16699 -27.5 6.5s-19.167 10.166 -30.5 17.499l-10 7c-9.33301 7.33301 -17.166 12.5 -23.499 15.5s-12.5 4.5 -18.5 4.5
c-10.667 0 -21.334 -4.66699 -32.001 -14s-23.667 -22.666 -39 -39.999l3 67c14 19.333 29 35 45 47s33.333 18 52 18c9.33301 0 18.666 -2.16699 27.999 -6.5s19.666 -10.166 30.999 -17.499l10 -7c9.33301 -6.66699 17 -11.667 23 -15s12 -5 18 -5
c10.667 0 21.5 4.66699 32.5 14s24.167 22.666 39.5 39.999z" />
    <glyph glyph-name="endash" unicode="&#x2013;" horiz-adv-x="456" 
d="M99 199l36 120h379l-36 -120h-379z" />
    <glyph glyph-name="emdash" unicode="&#x2014;" horiz-adv-x="582" 
d="M96 198l36 120h512l-36 -120h-512z" />
    <glyph glyph-name="quoteleft" unicode="&#x2018;" horiz-adv-x="184" 
d="M166 452l39 130l96 130h62l-90 -130h42l-39 -130h-110z" />
    <glyph glyph-name="quoteright" unicode="&#x2019;" horiz-adv-x="184" 
d="M359 712l-39 -130l-96 -130h-62l90 130h-42l39 130h110z" />
    <glyph glyph-name="quotesinglbase" unicode="&#x201a;" horiz-adv-x="173" 
d="M78 119h95l-82 -270h-95z" />
    <glyph glyph-name="quotedblleft" unicode="&#x201c;" horiz-adv-x="355" 
d="M166 452l39 130l96 130h62l-90 -130h42l-39 -130h-110zM338 452l39 130l96 130h62l-90 -130h42l-39 -130h-110z" />
    <glyph glyph-name="quotedblright" unicode="&#x201d;" horiz-adv-x="245" 
d="M359 712l-39 -130l-96 -130h-62l90 130h-42l39 130h110zM531 711l-39 -130l-96 -130h-62l90 130h-42l39 130h110z" />
    <glyph glyph-name="quotedblbase" unicode="&#x201e;" horiz-adv-x="327" 
d="M78 119h95l-82 -270h-95zM232 120h95l-82 -270h-95z" />
    <glyph glyph-name="dagger" unicode="&#x2020;" horiz-adv-x="341" 
d="M126 0l60 209h89l-60 -209h-89zM328 696h90l-55 -188h108l-29 -98h-108l-38 -130h-89l38 130h-108l29 98h108z" />
    <glyph glyph-name="daggerdbl" unicode="&#x2021;" horiz-adv-x="341" 
d="M284 550l42 146h90l-42 -146h109l-27 -94h-306l28 94h106zM392 236l-27 -94h-110l-41 -142h-90l42 142h-107l27 94h306z" />
    <glyph glyph-name="bullet" unicode="&#x2022;" horiz-adv-x="400" 
d="M161 357c7.33301 24.667 18 47.834 32 69.501s29.833 40.667 47.5 57s36.5 29.166 56.5 38.499s39.667 14 59 14s36.333 -4.66699 51 -14s26.167 -22.166 34.5 -38.499s13.166 -35.333 14.499 -57s-1.66699 -44.834 -9 -69.501s-18 -47.834 -32 -69.501
s-29.833 -40.667 -47.5 -57s-36.5 -29.166 -56.5 -38.499s-39.667 -14 -59 -14s-36.333 4.66699 -51 14s-26.167 22.166 -34.5 38.499s-13.166 35.333 -14.499 57s1.66699 44.834 9 69.501z" />
    <glyph glyph-name="ellipsis" unicode="&#x2026;" horiz-adv-x="583" 
d="M185 130l-39 -130h-110l39 130h110zM383 129l-39 -130h-110l39 130h110zM585 131l-39 -130h-110l39 130h110z" />
    <glyph glyph-name="perthousand" unicode="&#x2030;" horiz-adv-x="764" 
d="M702 706l-612 -716h-58l612 716h58zM405 92c-2 -6.66699 -1.50293 -12.835 1.49707 -18.502s8.5 -8.5 16.5 -8.5c8.66699 0 15.834 2.83301 21.501 8.5s9.5 11.834 11.5 18.501l38 129c2.66699 5.33301 2.83398 10.833 0.500977 16.5s-7.5 8.83398 -15.5 9.50098l22 75
h23c19.333 0 34 -8 44 -24s10.333 -39.333 1 -70l-42 -144c-9.33301 -30 -23.666 -53.167 -42.999 -69.5s-38.666 -24.5 -57.999 -24.5h-51c-19.333 0 -34 8.16699 -44 24.5s-10.333 39.5 -1 69.5l42 144c9.33301 30.667 23.666 54 42.999 70s38.666 24 57.999 24h16
l-24 -78c-11.333 -6 -18.666 -13.667 -21.999 -23zM363.997 467.999c-8.66699 -30.667 -22.8311 -53.998 -42.498 -69.998s-39.167 -24 -58.5 -24h-17l26 77c11.333 5.33301 18.666 13.666 21.999 24.999l38 128c2.66699 6.66699 2.83398 12.834 0.500977 18.501
s-7.83301 8.5 -16.5 8.5c-8 0 -15.167 -2.83301 -21.5 -8.5s-10.833 -11.834 -13.5 -18.501l-38 -128c-2 -6.66699 -1.66699 -12.834 1 -18.501s7.66699 -8.5 15 -8.5l-25 -75h-22c-19.333 0 -33.833 8 -43.5 24s-10.167 39.333 -1.5 70l44 144
c9.33301 30.667 23.666 54 42.999 70s38.666 24 57.999 24h51c19.333 0 34 -8 44 -24s10.333 -39.333 1 -70zM766 85.001c-8.66699 -30.667 -22.8311 -53.998 -42.498 -69.998s-39.167 -24 -58.5 -24h-17l26 77c11.333 5.33301 18.666 13.666 21.999 24.999l38 128
c2.66699 6.66699 2.83398 12.834 0.500977 18.501s-7.83301 8.5 -16.5 8.5c-8 0 -15.167 -2.83301 -21.5 -8.5s-10.833 -11.834 -13.5 -18.501l-38 -128c-2 -6.66699 -1.66699 -12.834 1 -18.501s7.66699 -8.5 15 -8.5l-25 -75h-22c-19.333 0 -33.833 8 -43.5 24
s-10.167 39.333 -1.5 70l44 144c9.33301 30.667 23.666 54 42.999 70s38.666 24 57.999 24h51c19.333 0 34 -8 44 -24s10.333 -39.333 1 -70z" />
    <glyph glyph-name="guilsinglleft" unicode="&#x2039;" horiz-adv-x="193" 
d="M110 258l123 125h83l-123 -125l32 -125h-83z" />
    <glyph glyph-name="guilsinglright" unicode="&#x203a;" horiz-adv-x="193" 
d="M210 383l42 -125l-114 -125h-84l115 125l-42 125h83z" />
    <glyph glyph-name="trademark" unicode="&#x2122;" horiz-adv-x="492" 
d="M249 644h-50l22 70h165l-22 -70h-49l-94 -313h-66zM452 411l123 303h106l-116 -383h-62l98 327h-1l-139 -327h-67l58 327h-1l-98 -327h-63l115 383h106z" />
    </font>
</defs>
</svg>
